<svg width="14" height="19" viewBox="0 0 14 19" fill="none" xmlns="http://www.w3.org/2000/svg">
<path d="M8.37186 0.0647129C8.05813 -0.0504063 7.75735 0.000830684 7.51797 0.116445C7.30472 0.219439 7.12897 0.377198 6.99061 0.520095C6.72361 0.795862 6.41546 1.21202 6.06502 1.68528L6.03251 1.72918L1.13833 8.33756L1.10838 8.37799C0.852556 8.72331 0.614056 9.04524 0.464842 9.32118C0.312567 9.60277 0.130481 10.0553 0.353453 10.542C0.58483 11.0471 1.0641 11.1875 1.38445 11.2372C1.68815 11.2843 2.08003 11.2842 2.48996 11.2841L2.54284 11.2841H4.52362C4.63155 11.2841 4.71727 11.2841 4.79091 11.2856L4.79119 11.2966C4.79326 11.3839 4.79331 11.4858 4.79331 11.6159L4.79331 15.9585C4.79327 16.5634 4.79323 17.0896 4.84209 17.4775C4.8674 17.6784 4.91248 17.9073 5.01403 18.1154C5.12549 18.3439 5.3188 18.5718 5.62815 18.6853C5.94188 18.8004 6.24266 18.7492 6.48204 18.6336C6.69528 18.5306 6.87104 18.3728 7.0094 18.2299C7.27639 17.9542 7.58454 17.538 7.93498 17.0648L12.8617 10.4125L12.8916 10.372C13.1475 10.0267 13.386 9.70478 13.5352 9.42885C13.6874 9.14725 13.8695 8.69471 13.6466 8.20802C13.4152 7.70297 12.9359 7.56252 12.6156 7.51285C12.3119 7.46576 11.92 7.46585 11.51 7.46593L11.4572 7.46594H9.47639C9.36846 7.46594 9.28274 7.4659 9.2091 7.46444L9.20882 7.45345C9.20675 7.3661 9.2067 7.26426 9.2067 7.13414L9.2067 2.7915C9.20674 2.18664 9.20678 1.66046 9.15792 1.27257C9.13261 1.0716 9.08753 0.842742 8.98598 0.634586C8.87452 0.406117 8.68121 0.178221 8.37186 0.0647129Z" fill="#77A648"/>
</svg>
