<svg width="18" height="17" viewBox="0 0 18 17" fill="none" xmlns="http://www.w3.org/2000/svg">
<path fill-rule="evenodd" clip-rule="evenodd" d="M3.51726 5.19884C3.90025 2.54222 6.20842 0.5 9 0.5C11.7916 0.5 14.0997 2.54222 14.4827 5.19884C14.4922 5.26448 14.5612 5.35272 14.6709 5.37459C16.5698 5.75331 18 7.41178 18 9.40217C18 11.6713 16.1403 13.5109 13.8462 13.5109H11.7692C11.3869 13.5109 11.0913 13.1859 10.9077 12.8542C10.6726 12.4294 10.2164 12.1413 9.69231 12.1413H8.30769C7.78355 12.1413 7.32743 12.4294 7.09233 12.8542C6.90873 13.1859 6.61312 13.5109 6.23077 13.5109H4.15385C1.85974 13.5109 0 11.6713 0 9.40217C0 7.41178 1.43017 5.75331 3.32912 5.37459C3.43883 5.35272 3.50779 5.26448 3.51726 5.19884ZM11.7692 10.087C11.7692 9.33057 11.1493 8.71739 10.3846 8.71739H7.61538C6.85068 8.71739 6.23077 9.33057 6.23077 10.087C6.23077 10.8433 6.85068 11.4565 7.61538 11.4565H10.3846C11.1493 11.4565 11.7692 10.8433 11.7692 10.087Z" fill="#77A648"/>
<path d="M6.92308 10.087C6.92308 9.70876 7.23303 9.40217 7.61538 9.40217H10.3846C10.767 9.40217 11.0769 9.70876 11.0769 10.087C11.0769 10.4652 10.767 10.7717 10.3846 10.7717H7.61538C7.23303 10.7717 6.92308 10.4652 6.92308 10.087Z" fill="#77A648"/>
<path d="M7.61538 13.5109C7.61538 13.1327 7.92534 12.8261 8.30769 12.8261H9.69231C10.0747 12.8261 10.3846 13.1327 10.3846 13.5109C10.3846 13.8891 10.0747 14.1957 9.69231 14.1957H8.30769C7.92534 14.1957 7.61538 13.8891 7.61538 13.5109Z" fill="#77A648"/>
<path d="M6.23077 16.1848C6.23077 15.8066 6.54073 15.5 6.92308 15.5H11.0769C11.4593 15.5 11.7692 15.8066 11.7692 16.1848C11.7692 16.563 11.4593 16.8696 11.0769 16.8696H6.92308C6.54073 16.8696 6.23077 16.563 6.23077 16.1848Z" fill="#77A648"/>
</svg>
