<svg width="16" height="16" viewBox="0 0 16 16" fill="none" xmlns="http://www.w3.org/2000/svg">
<path d="M4.80243 15.016L4.95772 14.4364L4.80243 15.016ZM0.984049 11.1976L1.5636 11.0423L0.984049 11.1976ZM15.016 11.1976L14.4365 11.0423L15.016 11.1976ZM11.1977 15.016L11.0424 14.4364L11.1977 15.016ZM11.1977 0.983988L11.0424 1.56354L11.1977 0.983988ZM15.016 4.80236L14.4365 4.95766L15.016 4.80236ZM4.80243 0.983988L4.95772 1.56354L4.80243 0.983988ZM0.984049 4.80236L1.5636 4.95766L0.984049 4.80236ZM11.3 4.39999C11.3 4.06862 11.0314 3.79999 10.7 3.79999C10.3687 3.79999 10.1 4.06862 10.1 4.39999H11.3ZM4.70005 11.6C4.70005 11.9314 4.96868 12.2 5.30005 12.2C5.63142 12.2 5.90005 11.9314 5.90005 11.6H4.70005ZM8.00005 14.6C6.28747 14.6 5.54888 14.5948 4.95772 14.4364L4.64713 15.5955C5.42937 15.8051 6.36473 15.8 8.00005 15.8V14.6ZM0.200049 7.99999C0.200049 9.63531 0.194895 10.5707 0.404494 11.3529L1.5636 11.0423C1.4052 10.4512 1.40005 9.71256 1.40005 7.99999H0.200049ZM4.95772 14.4364C3.30128 13.9926 2.00745 12.6988 1.5636 11.0423L0.404494 11.3529C0.959297 13.4235 2.57658 15.0407 4.64713 15.5955L4.95772 14.4364ZM14.6 7.99999C14.6 9.71257 14.5949 10.4512 14.4365 11.0423L15.5956 11.3529C15.8052 10.5707 15.8 9.63531 15.8 7.99999H14.6ZM8.00005 15.8C9.63537 15.8 10.5707 15.8051 11.353 15.5955L11.0424 14.4364C10.4512 14.5948 9.71263 14.6 8.00005 14.6V15.8ZM14.4365 11.0423C13.9927 12.6988 12.6988 13.9926 11.0424 14.4364L11.353 15.5955C13.4235 15.0407 15.0408 13.4235 15.5956 11.3529L14.4365 11.0423ZM8.00005 1.39999C9.71263 1.39999 10.4512 1.40514 11.0424 1.56354L11.353 0.404433C10.5707 0.194834 9.63537 0.199988 8.00005 0.199988V1.39999ZM15.8 7.99999C15.8 6.36467 15.8052 5.42931 15.5956 4.64707L14.4365 4.95766C14.5949 5.54882 14.6 6.28741 14.6 7.99999H15.8ZM11.0424 1.56354C12.6988 2.00739 13.9927 3.30121 14.4365 4.95766L15.5956 4.64707C15.0408 2.57652 13.4235 0.959236 11.353 0.404433L11.0424 1.56354ZM8.00005 0.199988C6.36473 0.199988 5.42937 0.194834 4.64713 0.404433L4.95772 1.56354C5.54888 1.40514 6.28747 1.39999 8.00005 1.39999V0.199988ZM1.40005 7.99999C1.40005 6.28741 1.4052 5.54882 1.5636 4.95766L0.404494 4.64707C0.194895 5.42931 0.200049 6.36467 0.200049 7.99999H1.40005ZM4.64713 0.404433C2.57658 0.959236 0.959297 2.57652 0.404494 4.64707L1.5636 4.95766C2.00745 3.30121 3.30128 2.00739 4.95772 1.56354L4.64713 0.404433ZM11.6 10.1C11.6 10.597 11.1971 11 10.7 11V12.2C11.8598 12.2 12.8 11.2598 12.8 10.1H11.6ZM10.7 11C10.203 11 9.80005 10.597 9.80005 10.1H8.60005C8.60005 11.2598 9.54025 12.2 10.7 12.2V11ZM9.80005 10.1C9.80005 9.60293 10.203 9.19999 10.7 9.19999V7.99999C9.54025 7.99999 8.60005 8.94019 8.60005 10.1H9.80005ZM10.7 9.19999C11.1971 9.19999 11.6 9.60293 11.6 10.1H12.8C12.8 8.94019 11.8598 7.99999 10.7 7.99999V9.19999ZM11.3 8.59999V4.39999H10.1V8.59999H11.3ZM7.40005 5.89999C7.40005 4.74019 6.45985 3.79999 5.30005 3.79999V4.99999C5.7971 4.99999 6.20005 5.40293 6.20005 5.89999H7.40005ZM5.30005 3.79999C4.14025 3.79999 3.20005 4.74019 3.20005 5.89999H4.40005C4.40005 5.40293 4.80299 4.99999 5.30005 4.99999V3.79999ZM3.20005 5.89999C3.20005 7.05979 4.14025 7.99999 5.30005 7.99999V6.79999C4.80299 6.79999 4.40005 6.39704 4.40005 5.89999H3.20005ZM5.30005 7.99999C6.45985 7.99999 7.40005 7.05979 7.40005 5.89999H6.20005C6.20005 6.39704 5.7971 6.79999 5.30005 6.79999V7.99999ZM4.70005 7.39999V11.6H5.90005V7.39999H4.70005Z" fill="#4D4D4D"/>
</svg>
