<svg width="20" height="20" viewBox="0 0 20 20" fill="none" xmlns="http://www.w3.org/2000/svg">
<path d="M10 4.75C7.1005 4.75 4.75 7.1005 4.75 10C4.75 12.8995 7.1005 15.25 10 15.25C12.8995 15.25 15.25 12.8995 15.25 10C15.25 7.1005 12.8995 4.75 10 4.75Z" fill="#77A648"/>
<path d="M1 9.25C0.585786 9.25 0.25 9.58579 0.25 10C0.25 10.4142 0.585786 10.75 1 10.75H3.25C3.66421 10.75 4 10.4142 4 10C4 9.58579 3.66421 9.25 3.25 9.25H1Z" fill="#77A648"/>
<path d="M5.70083 15.5928C5.99372 15.2999 5.99372 14.8251 5.70083 14.5322C5.40793 14.2393 4.93306 14.2393 4.64017 14.5322L3.84467 15.3277C3.55178 15.6206 3.55178 16.0954 3.84467 16.3883C4.13756 16.6812 4.61244 16.6812 4.90533 16.3883L5.70083 15.5928Z" fill="#77A648"/>
<path d="M4.90533 3.28217C4.61244 2.98928 4.13756 2.98928 3.84467 3.28217C3.55178 3.57506 3.55178 4.04994 3.84467 4.34283L4.64017 5.13833C4.93306 5.43122 5.40793 5.43122 5.70083 5.13833C5.99372 4.84543 5.99372 4.37056 5.70083 4.07767L4.90533 3.28217Z" fill="#77A648"/>
<path d="M10.75 1C10.75 0.585786 10.4142 0.25 10 0.25C9.58579 0.25 9.25 0.585786 9.25 1V3.25C9.25 3.66421 9.58579 4 10 4C10.4142 4 10.75 3.66421 10.75 3.25V1Z" fill="#77A648"/>
<path d="M16.3883 4.34283C16.6812 4.04994 16.6812 3.57506 16.3883 3.28217C16.0954 2.98928 15.6206 2.98928 15.3277 3.28217L14.5322 4.07767C14.2393 4.37056 14.2393 4.84543 14.5322 5.13833C14.8251 5.43122 15.2999 5.43122 15.5928 5.13833L16.3883 4.34283Z" fill="#77A648"/>
<path d="M16.75 9.25C16.3358 9.25 16 9.58579 16 10C16 10.4142 16.3358 10.75 16.75 10.75H19C19.4142 10.75 19.75 10.4142 19.75 10C19.75 9.58579 19.4142 9.25 19 9.25H16.75Z" fill="#77A648"/>
<path d="M15.5928 14.5322C15.2999 14.2393 14.8251 14.2393 14.5322 14.5322C14.2393 14.8251 14.2393 15.2999 14.5322 15.5928L15.3277 16.3883C15.6206 16.6812 16.0954 16.6812 16.3883 16.3883C16.6812 16.0954 16.6812 15.6206 16.3883 15.3277L15.5928 14.5322Z" fill="#77A648"/>
<path d="M10.75 16.75C10.75 16.3358 10.4142 16 10 16C9.58579 16 9.25 16.3358 9.25 16.75V19C9.25 19.4142 9.58579 19.75 10 19.75C10.4142 19.75 10.75 19.4142 10.75 19V16.75Z" fill="#77A648"/>
</svg>
