<svg width="16" height="16" viewBox="0 0 16 16" fill="none" xmlns="http://www.w3.org/2000/svg">
<path d="M4.91746 3.23186L4.50968 2.79173L4.91746 3.23186ZM7.16788 1.52624L7.34591 2.09922L7.16788 1.52624ZM11.0826 3.23186L10.6749 3.67199L11.0826 3.23186ZM8.83222 1.52624L8.65419 2.09922L8.83222 1.52624ZM2.37256 14.8766L2.09385 15.408L2.37256 14.8766ZM1.11395 13.581L0.576213 13.8471L1.11395 13.581ZM14.8861 13.581L15.4239 13.8471L14.8861 13.581ZM13.6275 14.8766L13.9062 15.408L13.6275 14.8766ZM15.1095 7.62952L15.6917 7.48428L15.1095 7.62952ZM13.6746 5.63333L14.0824 5.1932L13.6746 5.63333ZM14.7186 6.72595L15.2227 6.40051L14.7186 6.72595ZM0.890577 7.62952L0.308421 7.48428L0.890577 7.62952ZM2.32546 5.63334L1.91768 5.1932L2.32546 5.63334ZM1.28148 6.72595L0.777411 6.40051L1.28148 6.72595ZM9.06592 9.86135L8.91063 10.4409L9.06592 9.86135ZM10.3387 11.1341L10.9183 10.9788L10.3387 11.1341ZM6.93418 9.86135L6.77888 9.28179L6.93418 9.86135ZM5.66138 11.1341L5.08183 10.9788L5.66138 11.1341ZM14.6 9.15927V10.4561H15.8V9.15927H14.6ZM1.40005 10.4561V9.15927H0.200049V10.4561H1.40005ZM2.73324 6.07347L5.32524 3.67199L4.50968 2.79173L1.91768 5.1932L2.73324 6.07347ZM10.6749 3.67199L13.2669 6.07347L14.0824 5.1932L11.4904 2.79173L10.6749 3.67199ZM5.32524 3.67199C5.87693 3.16085 6.26568 2.80126 6.59237 2.54292C6.91349 2.289 7.13707 2.16411 7.34591 2.09922L6.98986 0.953262C6.58259 1.0798 6.22574 1.303 5.84805 1.60166C5.47595 1.8959 5.04753 2.29341 4.50968 2.79173L5.32524 3.67199ZM11.4904 2.79173C10.9526 2.29341 10.5242 1.8959 10.152 1.60165C9.77436 1.30299 9.41751 1.0798 9.01024 0.953262L8.65419 2.09922C8.86303 2.16411 9.08661 2.289 9.40772 2.54292C9.73442 2.80126 10.1232 3.16085 10.6749 3.67199L11.4904 2.79173ZM7.34591 2.09922C7.77265 1.96663 8.22745 1.96663 8.65419 2.09922L9.01024 0.953262C8.3516 0.74862 7.64849 0.74862 6.98986 0.953262L7.34591 2.09922ZM5.40805 14.5998C4.59138 14.5998 4.01603 14.5993 3.56676 14.5615C3.12502 14.5243 2.8591 14.4543 2.65126 14.3453L2.09385 15.408C2.50208 15.6221 2.94743 15.7136 3.46618 15.7573C3.97741 15.8003 4.61176 15.7998 5.40805 15.7998V14.5998ZM0.200049 10.4561C0.200049 11.2767 0.199608 11.9272 0.241167 12.4509C0.283243 12.981 0.37119 13.4329 0.576213 13.8471L1.65169 13.3148C1.54281 13.0948 1.47381 12.8145 1.43741 12.3559C1.40049 11.8908 1.40005 11.296 1.40005 10.4561H0.200049ZM2.65126 14.3453C2.22358 14.121 1.87265 13.7613 1.65169 13.3148L0.576213 13.8471C0.907479 14.5164 1.43772 15.0638 2.09385 15.408L2.65126 14.3453ZM14.6 10.4561C14.6 11.296 14.5996 11.8908 14.5627 12.3559C14.5263 12.8145 14.4573 13.0948 14.3484 13.3148L15.4239 13.8471C15.6289 13.4329 15.7169 12.981 15.7589 12.4509C15.8005 11.9272 15.8 11.2767 15.8 10.4561H14.6ZM10.5921 15.7998C11.3883 15.7998 12.0227 15.8003 12.5339 15.7573C13.0527 15.7136 13.498 15.6221 13.9062 15.408L13.3488 14.3453C13.141 14.4543 12.8751 14.5243 12.4333 14.5615C11.9841 14.5993 11.4087 14.5998 10.5921 14.5998V15.7998ZM14.3484 13.3148C14.1274 13.7613 13.7765 14.121 13.3488 14.3453L13.9062 15.408C14.5624 15.0638 15.0926 14.5164 15.4239 13.8471L14.3484 13.3148ZM15.8 9.15927C15.8 8.41135 15.8042 7.93538 15.6917 7.48428L14.5274 7.77476C14.5959 8.04939 14.6 8.35134 14.6 9.15927H15.8ZM13.2669 6.07347C13.8508 6.61446 14.0635 6.81751 14.2145 7.05139L15.2227 6.40051C14.9708 6.01037 14.6219 5.69302 14.0824 5.1932L13.2669 6.07347ZM15.6917 7.48428C15.5956 7.09919 15.4372 6.73281 15.2227 6.40051L14.2145 7.05139C14.3571 7.27216 14.463 7.51665 14.5274 7.77476L15.6917 7.48428ZM1.40005 9.15927C1.40005 8.35134 1.40422 8.04939 1.47273 7.77476L0.308421 7.48428C0.195879 7.93538 0.200049 8.41135 0.200049 9.15927H1.40005ZM1.91768 5.1932C1.37821 5.69302 1.02929 6.01037 0.777411 6.40051L1.78556 7.05139C1.93656 6.81751 2.14933 6.61446 2.73324 6.07347L1.91768 5.1932ZM1.47273 7.77476C1.53713 7.51665 1.64303 7.27216 1.78556 7.05139L0.777411 6.40051C0.562877 6.73281 0.404495 7.09919 0.308421 7.48428L1.47273 7.77476ZM9.80005 12.2V15.008H11V12.2H9.80005ZM6.20005 15.008V12.2H5.00005V15.008H6.20005ZM8.00005 10.4C8.59666 10.4 8.77727 10.4052 8.91063 10.4409L9.22121 9.28179C8.89678 9.19486 8.5194 9.20001 8.00005 9.20001V10.4ZM11 12.2C11 11.6807 11.0052 11.3033 10.9183 10.9788L9.75916 11.2894C9.7949 11.4228 9.80005 11.6034 9.80005 12.2H11ZM8.91063 10.4409C9.32474 10.5519 9.6482 10.8753 9.75916 11.2894L10.9183 10.9788C10.6964 10.1506 10.0494 9.50371 9.22121 9.28179L8.91063 10.4409ZM8.00005 9.20001C7.48069 9.20001 7.10332 9.19486 6.77888 9.28179L7.08947 10.4409C7.22283 10.4052 7.40344 10.4 8.00005 10.4V9.20001ZM6.20005 12.2C6.20005 11.6034 6.2052 11.4228 6.24094 11.2894L5.08183 10.9788C4.9949 11.3033 5.00005 11.6807 5.00005 12.2H6.20005ZM6.77888 9.28179C5.95066 9.50371 5.30375 10.1506 5.08183 10.9788L6.24094 11.2894C6.3519 10.8753 6.67536 10.5519 7.08947 10.4409L6.77888 9.28179ZM5.00005 15.008C5.00005 14.7824 5.18312 14.5995 5.40877 14.5998L5.40733 15.7998C5.84498 15.8003 6.20005 15.4457 6.20005 15.008H5.00005ZM9.80005 15.008C9.80005 15.4457 10.1551 15.8003 10.5928 15.7998L10.5913 14.5998C10.817 14.5995 11 14.7824 11 15.008H9.80005Z" fill="#4D4D4D"/>
</svg>
