<svg width="20" height="20" viewBox="0 0 20 20" fill="none" xmlns="http://www.w3.org/2000/svg">
<path fill-rule="evenodd" clip-rule="evenodd" d="M9.82642 0.25C9.26791 0.25 8.76023 0.388011 8.21745 0.612462C7.69739 0.827518 7.09713 1.1433 6.36071 1.53072L3.84697 2.8531C3.04795 3.27342 2.3976 3.61553 1.89368 3.94771C1.36791 4.29428 0.948737 4.66278 0.642153 5.16087C0.335647 5.65883 0.201083 6.18982 0.137429 6.80041C0.0763935 7.3859 0.0764037 8.10015 0.0764164 8.97812V11.0219C0.0764037 11.8999 0.0763935 12.6141 0.137429 13.1996C0.201083 13.8102 0.335647 14.3412 0.642153 14.8391C0.948737 15.3372 1.36791 15.7057 1.89368 16.0523C2.39759 16.3845 3.04793 16.7266 3.84693 17.1469L6.36068 18.4693C7.09711 18.8567 7.69738 19.1725 8.21745 19.3875C8.76023 19.612 9.26791 19.75 9.82642 19.75C10.3849 19.75 10.8926 19.612 11.4354 19.3875C11.9554 19.1725 12.5557 18.8567 13.2921 18.4693L15.8059 17.1469C16.6049 16.7266 17.2552 16.3845 17.7592 16.0523C18.2849 15.7057 18.7041 15.3372 19.0107 14.8391C19.3172 14.3412 19.4517 13.8102 19.5154 13.1996C19.5764 12.6141 19.5764 11.8999 19.5764 11.0219V8.97812C19.5764 8.10015 19.5764 7.3859 19.5154 6.80041C19.4517 6.18982 19.3172 5.65883 19.0107 5.16087C18.7041 4.66278 18.2849 4.29428 17.7592 3.94771C17.2867 3.6363 16.6856 3.31616 15.954 2.93104L15.8059 2.85311L13.2921 1.53071C12.5557 1.1433 11.9554 0.827517 11.4354 0.612462C10.8926 0.388011 10.3849 0.25 9.82642 0.25ZM5.7846 10C5.7846 7.85052 7.59196 6.10415 9.82642 6.10415C12.0609 6.10415 13.8682 7.85052 13.8682 10C13.8682 12.1495 12.0609 13.8958 9.82642 13.8958C7.59196 13.8958 5.7846 12.1495 5.7846 10Z" fill="white"/>
<path fill-rule="evenodd" clip-rule="evenodd" d="M7.3446 10C7.3446 8.67467 8.45796 7.60415 9.82642 7.60415C11.1949 7.60415 12.3082 8.67467 12.3082 10C12.3082 11.3253 11.1949 12.3958 9.82642 12.3958C8.45796 12.3958 7.3446 11.3253 7.3446 10Z" fill="white"/>
</svg>
