<svg width="16" height="16" viewBox="0 0 16 16" fill="none" xmlns="http://www.w3.org/2000/svg">
<path d="M3.90153 3.22803L3.62292 2.69664L3.90153 3.22803ZM3.90153 12.772L4.18015 12.2406L3.90153 12.772ZM10.2985 13.7158L10.5771 14.2472L10.2985 13.7158ZM5.70153 13.7158L5.42292 14.2472L5.70153 13.7158ZM8.00002 14.6V15.2V14.6ZM12.0985 12.772L11.8199 12.2406V12.2406L12.0985 12.772ZM12.0985 3.22803L12.3771 2.69664L12.0985 3.22803ZM10.2985 2.28427L10.0199 2.81566L10.2985 2.28427ZM5.70153 2.28427L5.42292 1.75288L5.70153 2.28427ZM10.0199 2.81566L11.8199 3.75942L12.3771 2.69664L10.5771 1.75288L10.0199 2.81566ZM14 7.27856V8.72149H15.2V7.27856H14ZM11.8199 12.2406L10.0199 13.1844L10.5771 14.2472L12.3771 13.3034L11.8199 12.2406ZM5.98015 13.1844L4.18015 12.2406L3.62292 13.3034L5.42292 14.2472L5.98015 13.1844ZM2.00002 8.72149V7.27856H0.800024V8.72149H2.00002ZM4.18015 3.75942L5.98015 2.81566L5.42292 1.75288L3.62292 2.69664L4.18015 3.75942ZM2.00002 7.27856C2.00002 6.59861 2.00078 6.13442 2.0388 5.77094C2.0753 5.42196 2.14225 5.21595 2.24676 5.04673L1.22577 4.41619C0.994037 4.79142 0.892869 5.19141 0.84531 5.6461C0.799269 6.08628 0.800024 6.62342 0.800024 7.27856H2.00002ZM3.62292 2.69664C3.02368 3.01082 2.53558 3.26598 2.15829 3.51385C1.77054 3.7686 1.45666 4.04233 1.22577 4.41619L2.24676 5.04673C2.35212 4.87613 2.5112 4.7178 2.81719 4.51677C3.13363 4.30888 3.56004 4.08455 4.18015 3.75942L3.62292 2.69664ZM4.18015 12.2406C3.56004 11.9155 3.13363 11.6912 2.81719 11.4833C2.5112 11.2822 2.35212 11.1239 2.24676 10.9533L1.22577 11.5839C1.45666 11.9577 1.77054 12.2315 2.15829 12.4862C2.53558 12.7341 3.02368 12.9892 3.62292 13.3034L4.18015 12.2406ZM0.800024 8.72149C0.800024 9.37663 0.799269 9.91377 0.84531 10.3539C0.892869 10.8086 0.994037 11.2086 1.22577 11.5839L2.24676 10.9533C2.14225 10.7841 2.0753 10.5781 2.0388 10.2291C2.00078 9.86563 2.00002 9.40144 2.00002 8.72149H0.800024ZM10.0199 13.1844C9.44816 13.4842 9.05466 13.6898 8.72851 13.8242C8.41385 13.9539 8.20091 14 8.00002 14V15.2C8.41113 15.2 8.78526 15.0988 9.18577 14.9337C9.57477 14.7734 10.0245 14.5369 10.5771 14.2472L10.0199 13.1844ZM5.42292 14.2472C5.97551 14.5369 6.42527 14.7734 6.81428 14.9337C7.21479 15.0988 7.58892 15.2 8.00002 15.2V14C7.79914 14 7.5862 13.9539 7.27154 13.8242C6.94538 13.6898 6.55189 13.4842 5.98015 13.1844L5.42292 14.2472ZM14 8.72149C14 9.40144 13.9993 9.86563 13.9612 10.2291C13.9247 10.5781 13.8578 10.7841 13.7533 10.9533L14.7743 11.5839C15.006 11.2086 15.1072 10.8086 15.1547 10.3539C15.2008 9.91377 15.2 9.37663 15.2 8.72149H14ZM12.3771 13.3034C12.9764 12.9892 13.4645 12.7341 13.8418 12.4862C14.2295 12.2315 14.5434 11.9577 14.7743 11.5839L13.7533 10.9533C13.6479 11.1239 13.4889 11.2822 13.1829 11.4833C12.8664 11.6912 12.44 11.9155 11.8199 12.2406L12.3771 13.3034ZM11.8199 3.75942C12.44 4.08455 12.8664 4.30888 13.1829 4.51677C13.4889 4.7178 13.6479 4.87613 13.7533 5.04673L14.7743 4.41619C14.5434 4.04233 14.2295 3.7686 13.8418 3.51385C13.4645 3.26598 12.9764 3.01083 12.3771 2.69664L11.8199 3.75942ZM15.2 7.27856C15.2 6.62342 15.2008 6.08628 15.1547 5.6461C15.1072 5.19141 15.006 4.79142 14.7743 4.41619L13.7533 5.04673C13.8578 5.21595 13.9247 5.42196 13.9612 5.77094C13.9993 6.13442 14 6.59861 14 7.27856H15.2ZM10.5771 1.75288C10.0245 1.46315 9.57477 1.22668 9.18577 1.06635C8.78526 0.901288 8.41113 0.800024 8.00002 0.800024V2.00002C8.2009 2.00002 8.41385 2.04614 8.72851 2.17582C9.05467 2.31024 9.44816 2.51589 10.0199 2.81566L10.5771 1.75288ZM5.98015 2.81566C6.55189 2.51589 6.94538 2.31024 7.27154 2.17582C7.5862 2.04614 7.79914 2.00002 8.00002 2.00002V0.800024C7.58892 0.800024 7.21479 0.901288 6.81428 1.06635C6.42527 1.22668 5.97551 1.46315 5.42292 1.75288L5.98015 2.81566ZM9.80002 8.00002C9.80002 8.92061 9.01672 9.70698 8.00002 9.70698V10.907C9.6343 10.907 11 9.62763 11 8.00002H9.80002ZM8.00002 9.70698C6.98333 9.70698 6.20002 8.92061 6.20002 8.00002H5.00002C5.00002 9.62763 6.36575 10.907 8.00002 10.907V9.70698ZM6.20002 8.00002C6.20002 7.07944 6.98333 6.29307 8.00002 6.29307V5.09307C6.36575 5.09307 5.00002 6.37242 5.00002 8.00002H6.20002ZM8.00002 6.29307C9.01672 6.29307 9.80002 7.07944 9.80002 8.00002H11C11 6.37242 9.6343 5.09307 8.00002 5.09307V6.29307Z" fill="#4D4D4D"/>
</svg>
