<svg width="18" height="20" viewBox="0 0 18 20" fill="none" xmlns="http://www.w3.org/2000/svg">
<path fill-rule="evenodd" clip-rule="evenodd" d="M9 19.75C4.41795 19.75 0.75 15.9202 0.75 11.2546C0.75 8.84874 2.0844 6.14803 3.57997 4.13908C4.34718 3.10852 5.21519 2.17961 6.08658 1.4934C6.90446 0.849337 7.93687 0.25 9 0.25C10.0631 0.25 11.0955 0.849337 11.9134 1.4934C12.7848 2.17961 13.6528 3.10852 14.42 4.13908C15.9156 6.14803 17.25 8.84874 17.25 11.2546C17.25 15.9202 13.5821 19.75 9 19.75ZM12.99 7.14501C13.2932 6.91342 13.3536 6.47673 13.125 6.16964C12.4375 4.77678 11.4062 3.73214 10.382 3.2895C10.0822 3.05343 9.65032 3.10823 9.41728 3.4119C9.18424 3.71556 9.23834 4.1531 9.53811 4.38916C10.375 4.77678 11.4062 5.82143 12.0272 7.00829C12.2558 7.31538 12.6869 7.37659 12.99 7.14501Z" fill="#77A648"/>
</svg>
