<svg width="14" height="20" viewBox="0 0 14 20" fill="none" xmlns="http://www.w3.org/2000/svg">
<path d="M6.78931 0.25C3.03496 0.25 0.0393066 3.40233 0.0393066 7.23077C0.0393066 9.18039 0.813309 10.949 2.06629 12.2182C2.47128 12.6285 2.70597 13.1006 2.70597 13.5584C2.70597 14.6569 3.57053 15.5962 4.69605 15.5962H8.88256C10.0081 15.5962 10.8726 14.6569 10.8726 13.5584C10.8726 13.1006 11.1073 12.6285 11.5123 12.2182C12.7653 10.949 13.5393 9.18039 13.5393 7.23077C13.5393 3.40233 10.5437 0.25 6.78931 0.25Z" fill="white"/>
<path d="M4.78931 18.25C4.37509 18.25 4.03931 18.5858 4.03931 19C4.03931 19.4142 4.37509 19.75 4.78931 19.75H8.78931C9.20352 19.75 9.53931 19.4142 9.53931 19C9.53931 18.5858 9.20352 18.25 8.78931 18.25H4.78931Z" fill="white"/>
<path d="M4.12264 16.1731C3.70843 16.1731 3.37264 16.5089 3.37264 16.9231C3.37264 17.3373 3.70843 17.6731 4.12264 17.6731H9.45597C9.87019 17.6731 10.206 17.3373 10.206 16.9231C10.206 16.5089 9.87019 16.1731 9.45597 16.1731H4.12264Z" fill="white"/>
</svg>
