<svg width="30" height="30" viewBox="0 0 30 30" fill="none" xmlns="http://www.w3.org/2000/svg">
<path fill-rule="evenodd" clip-rule="evenodd" d="M23.5342 14.8708C23.679 14.6798 23.9995 14.7603 23.9995 15C23.9995 19.9706 19.9701 24 14.9995 24C10.0289 24 5.99951 19.9706 5.99951 15C5.99951 10.0294 10.0289 6 14.9995 6C15.2392 6 15.3197 6.32049 15.1287 6.46528C13.6832 7.56085 12.7495 9.29639 12.7495 11.25C12.7495 14.5637 15.4358 17.25 18.7495 17.25C20.7031 17.25 22.4387 16.3163 23.5342 14.8708Z" fill="#77A648"/>
<path d="M20.0745 8.7251C20.1349 8.56186 20.3658 8.56186 20.4262 8.7251L20.8282 9.81132C20.8471 9.86264 20.8876 9.9031 20.9389 9.92209L22.0251 10.324C22.1884 10.3844 22.1884 10.6153 22.0251 10.6757L20.9389 11.0777C20.8876 11.0967 20.8471 11.1371 20.8282 11.1884L20.4262 12.2747C20.3658 12.4379 20.1349 12.4379 20.0745 12.2747L19.6726 11.1884C19.6536 11.1371 19.6131 11.0967 19.5618 11.0777L18.4756 10.6757C18.3123 10.6153 18.3123 10.3844 18.4756 10.324L19.5618 9.92209C19.6131 9.9031 19.6536 9.86264 19.6726 9.81132L20.0745 8.7251Z" fill="#77A648"/>
<path d="M16.7868 12.2375C16.817 12.1559 16.9325 12.1559 16.9627 12.2375L17.1636 12.7806C17.1731 12.8063 17.1934 12.8265 17.219 12.836L17.7621 13.037C17.8438 13.0672 17.8438 13.1826 17.7621 13.2128L17.219 13.4138C17.1934 13.4233 17.1731 13.4435 17.1636 13.4692L16.9627 14.0123C16.9325 14.0939 16.817 14.0939 16.7868 14.0123L16.5859 13.4692C16.5764 13.4435 16.5561 13.4233 16.5305 13.4138L15.9874 13.2128C15.9057 13.1826 15.9057 13.0672 15.9874 13.037L16.5305 12.836C16.5561 12.8265 16.5764 12.8063 16.5859 12.7806L16.7868 12.2375Z" fill="#77A648"/>
<path d="M7.03659 4.73761C7.06679 4.65599 7.18223 4.65599 7.21244 4.73761L7.4134 5.28072C7.4229 5.30638 7.44313 5.32661 7.46879 5.33611L8.0119 5.53708C8.09352 5.56728 8.09352 5.68272 8.0119 5.71292L7.46879 5.91389C7.44313 5.92339 7.4229 5.94362 7.4134 5.96928L7.21244 6.51239C7.18223 6.59401 7.06679 6.59401 7.03659 6.51239L6.83562 5.96928C6.82612 5.94362 6.80589 5.92339 6.78023 5.91389L6.23712 5.71292C6.1555 5.68272 6.1555 5.56728 6.23712 5.53708L6.78023 5.33611C6.80589 5.32661 6.82612 5.30638 6.83562 5.28072L7.03659 4.73761Z" fill="#77A648"/>
</svg>
