<svg width="16" height="14" viewBox="0 0 16 14" fill="none" xmlns="http://www.w3.org/2000/svg">
<path d="M10.016 1C9.68468 1 9.41605 1.26863 9.41605 1.6C9.41605 1.93137 9.68468 2.2 10.016 2.2V1ZM5.98405 2.2C6.31542 2.2 6.58405 1.93137 6.58405 1.6C6.58405 1.26863 6.31542 1 5.98405 1V2.2ZM8.60005 1C8.60005 0.668629 8.33142 0.4 8.00005 0.4C7.66868 0.4 7.40005 0.668629 7.40005 1H8.60005ZM7.40005 2.2C7.40005 2.53137 7.66868 2.8 8.00005 2.8C8.33142 2.8 8.60005 2.53137 8.60005 2.2H7.40005ZM4.25605 7.9C3.92468 7.9 3.65605 8.16863 3.65605 8.5C3.65605 8.83137 3.92468 9.1 4.25605 9.1V7.9ZM8.86405 9.1C9.19542 9.1 9.46405 8.83137 9.46405 8.5C9.46405 8.16863 9.19542 7.9 8.86405 7.9V9.1ZM4.25605 5.5C3.92468 5.5 3.65605 5.76863 3.65605 6.1C3.65605 6.43137 3.92468 6.7 4.25605 6.7V5.5ZM11.168 6.7C11.4994 6.7 11.768 6.43137 11.768 6.1C11.768 5.76863 11.4994 5.5 11.168 5.5V6.7ZM14.6 5.2V9.4H15.8V5.2H14.6ZM11.744 12.4H4.25605V13.6H11.744V12.4ZM1.40005 9.4V5.2H0.200049V9.4H1.40005ZM4.25605 12.4C2.70157 12.4 1.40005 11.0802 1.40005 9.4H0.200049C0.200049 11.6963 1.99313 13.6 4.25605 13.6V12.4ZM14.6 9.4C14.6 11.0802 13.2985 12.4 11.744 12.4V13.6C14.007 13.6 15.8 11.6963 15.8 9.4H14.6ZM11.744 2.2C13.2985 2.2 14.6 3.51983 14.6 5.2H15.8C15.8 2.90372 14.007 1 11.744 1V2.2ZM4.25605 1C1.99313 1 0.200049 2.90372 0.200049 5.2H1.40005C1.40005 3.51983 2.70157 2.2 4.25605 2.2V1ZM10.016 2.2C10.0174 2.2 10.0187 2.2 10.02 2.2C10.0213 2.2 10.0227 2.2 10.024 2.2C10.0253 2.2 10.0266 2.2 10.0279 2.2C10.0293 2.2 10.0306 2.2 10.0319 2.2C10.0333 2.2 10.0346 2.2 10.0359 2.2C10.0373 2.2 10.0386 2.2 10.0399 2.2C10.0413 2.2 10.0426 2.2 10.0439 2.2C10.0453 2.2 10.0466 2.2 10.048 2.2C10.0493 2.2 10.0506 2.2 10.052 2.2C10.0533 2.2 10.0547 2.2 10.056 2.2C10.0574 2.2 10.0587 2.2 10.0601 2.2C10.0614 2.2 10.0628 2.2 10.0641 2.2C10.0655 2.2 10.0668 2.2 10.0682 2.2C10.0695 2.2 10.0709 2.2 10.0722 2.2C10.0736 2.2 10.0749 2.2 10.0763 2.2C10.0777 2.2 10.079 2.2 10.0804 2.2C10.0817 2.2 10.0831 2.2 10.0845 2.2C10.0858 2.2 10.0872 2.2 10.0886 2.2C10.0899 2.2 10.0913 2.2 10.0927 2.2C10.094 2.2 10.0954 2.2 10.0968 2.2C10.0981 2.2 10.0995 2.2 10.1009 2.2C10.1023 2.2 10.1036 2.2 10.105 2.2C10.1064 2.2 10.1078 2.2 10.1092 2.2C10.1105 2.2 10.1119 2.2 10.1133 2.2C10.1147 2.2 10.1161 2.2 10.1174 2.2C10.1188 2.2 10.1202 2.2 10.1216 2.2C10.123 2.2 10.1244 2.2 10.1258 2.2C10.1271 2.2 10.1285 2.2 10.1299 2.2C10.1313 2.2 10.1327 2.2 10.1341 2.2C10.1355 2.2 10.1369 2.2 10.1383 2.2C10.1397 2.2 10.1411 2.2 10.1425 2.2C10.1439 2.2 10.1453 2.2 10.1467 2.2C10.1481 2.2 10.1495 2.2 10.1509 2.2C10.1523 2.2 10.1537 2.2 10.1551 2.2C10.1565 2.2 10.1579 2.2 10.1593 2.2C10.1607 2.2 10.1621 2.2 10.1635 2.2C10.1649 2.2 10.1663 2.2 10.1677 2.2C10.1691 2.2 10.1706 2.2 10.172 2.2C10.1734 2.2 10.1748 2.2 10.1762 2.2C10.1776 2.2 10.179 2.2 10.1805 2.2C10.1819 2.2 10.1833 2.2 10.1847 2.2C10.1861 2.2 10.1875 2.2 10.189 2.2C10.1904 2.2 10.1918 2.2 10.1932 2.2C10.1947 2.2 10.1961 2.2 10.1975 2.2C10.1989 2.2 10.2004 2.2 10.2018 2.2C10.2032 2.2 10.2046 2.2 10.2061 2.2C10.2075 2.2 10.2089 2.2 10.2103 2.2C10.2118 2.2 10.2132 2.2 10.2146 2.2C10.2161 2.2 10.2175 2.2 10.2189 2.2C10.2204 2.2 10.2218 2.2 10.2232 2.2C10.2247 2.2 10.2261 2.2 10.2276 2.2C10.229 2.2 10.2304 2.2 10.2319 2.2C10.2333 2.2 10.2347 2.2 10.2362 2.2C10.2376 2.2 10.2391 2.2 10.2405 2.2C10.242 2.2 10.2434 2.2 10.2448 2.2C10.2463 2.2 10.2477 2.2 10.2492 2.2C10.2506 2.2 10.2521 2.2 10.2535 2.2C10.255 2.2 10.2564 2.2 10.2579 2.2C10.2593 2.2 10.2608 2.2 10.2622 2.2C10.2637 2.2 10.2651 2.2 10.2666 2.2C10.268 2.2 10.2695 2.2 10.2709 2.2C10.2724 2.2 10.2738 2.2 10.2753 2.2C10.2768 2.2 10.2782 2.2 10.2797 2.2C10.2811 2.2 10.2826 2.2 10.284 2.2C10.2855 2.2 10.287 2.2 10.2884 2.2C10.2899 2.2 10.2913 2.2 10.2928 2.2C10.2943 2.2 10.2957 2.2 10.2972 2.2C10.2987 2.2 10.3001 2.2 10.3016 2.2C10.3031 2.2 10.3045 2.2 10.306 2.2C10.3075 2.2 10.3089 2.2 10.3104 2.2C10.3119 2.2 10.3133 2.2 10.3148 2.2C10.3163 2.2 10.3177 2.2 10.3192 2.2C10.3207 2.2 10.3221 2.2 10.3236 2.2C10.3251 2.2 10.3266 2.2 10.328 2.2C10.3295 2.2 10.331 2.2 10.3325 2.2C10.3339 2.2 10.3354 2.2 10.3369 2.2C10.3384 2.2 10.3398 2.2 10.3413 2.2C10.3428 2.2 10.3443 2.2 10.3457 2.2C10.3472 2.2 10.3487 2.2 10.3502 2.2C10.3517 2.2 10.3531 2.2 10.3546 2.2C10.3561 2.2 10.3576 2.2 10.3591 2.2C10.3605 2.2 10.362 2.2 10.3635 2.2C10.365 2.2 10.3665 2.2 10.368 2.2C10.3694 2.2 10.3709 2.2 10.3724 2.2C10.3739 2.2 10.3754 2.2 10.3769 2.2C10.3784 2.2 10.3798 2.2 10.3813 2.2C10.3828 2.2 10.3843 2.2 10.3858 2.2C10.3873 2.2 10.3888 2.2 10.3903 2.2C10.3918 2.2 10.3932 2.2 10.3947 2.2C10.3962 2.2 10.3977 2.2 10.3992 2.2C10.4007 2.2 10.4022 2.2 10.4037 2.2C10.4052 2.2 10.4067 2.2 10.4082 2.2C10.4097 2.2 10.4112 2.2 10.4126 2.2C10.4141 2.2 10.4156 2.2 10.4171 2.2C10.4186 2.2 10.4201 2.2 10.4216 2.2C10.4231 2.2 10.4246 2.2 10.4261 2.2C10.4276 2.2 10.4291 2.2 10.4306 2.2C10.4321 2.2 10.4336 2.2 10.4351 2.2C10.4366 2.2 10.4381 2.2 10.4396 2.2C10.4411 2.2 10.4426 2.2 10.4441 2.2C10.4456 2.2 10.4471 2.2 10.4486 2.2C10.4501 2.2 10.4516 2.2 10.4531 2.2C10.4546 2.2 10.4561 2.2 10.4576 2.2C10.4591 2.2 10.4606 2.2 10.4621 2.2C10.4636 2.2 10.4651 2.2 10.4666 2.2C10.4681 2.2 10.4696 2.2 10.4711 2.2C10.4726 2.2 10.4741 2.2 10.4756 2.2C10.4771 2.2 10.4786 2.2 10.4802 2.2C10.4817 2.2 10.4832 2.2 10.4847 2.2C10.4862 2.2 10.4877 2.2 10.4892 2.2C10.4907 2.2 10.4922 2.2 10.4937 2.2C10.4952 2.2 10.4967 2.2 10.4982 2.2C10.4997 2.2 10.5012 2.2 10.5028 2.2C10.5043 2.2 10.5058 2.2 10.5073 2.2C10.5088 2.2 10.5103 2.2 10.5118 2.2C10.5133 2.2 10.5148 2.2 10.5163 2.2C10.5178 2.2 10.5194 2.2 10.5209 2.2C10.5224 2.2 10.5239 2.2 10.5254 2.2C10.5269 2.2 10.5284 2.2 10.5299 2.2C10.5314 2.2 10.5329 2.2 10.5345 2.2C10.536 2.2 10.5375 2.2 10.539 2.2C10.5405 2.2 10.542 2.2 10.5435 2.2C10.545 2.2 10.5465 2.2 10.5481 2.2C10.5496 2.2 10.5511 2.2 10.5526 2.2C10.5541 2.2 10.5556 2.2 10.5571 2.2C10.5586 2.2 10.5602 2.2 10.5617 2.2C10.5632 2.2 10.5647 2.2 10.5662 2.2C10.5677 2.2 10.5692 2.2 10.5707 2.2C10.5723 2.2 10.5738 2.2 10.5753 2.2C10.5768 2.2 10.5783 2.2 10.5798 2.2C10.5813 2.2 10.5828 2.2 10.5844 2.2C10.5859 2.2 10.5874 2.2 10.5889 2.2C10.5904 2.2 10.5919 2.2 10.5934 2.2C10.5949 2.2 10.5965 2.2 10.598 2.2C10.5995 2.2 10.601 2.2 10.6025 2.2C10.604 2.2 10.6055 2.2 10.6071 2.2C10.6086 2.2 10.6101 2.2 10.6116 2.2C10.6131 2.2 10.6146 2.2 10.6161 2.2C10.6176 2.2 10.6192 2.2 10.6207 2.2C10.6222 2.2 10.6237 2.2 10.6252 2.2C10.6267 2.2 10.6282 2.2 10.6298 2.2C10.6313 2.2 10.6328 2.2 10.6343 2.2C10.6358 2.2 10.6373 2.2 10.6388 2.2C10.6403 2.2 10.6419 2.2 10.6434 2.2C10.6449 2.2 10.6464 2.2 10.6479 2.2C10.6494 2.2 10.6509 2.2 10.6524 2.2C10.654 2.2 10.6555 2.2 10.657 2.2C10.6585 2.2 10.66 2.2 10.6615 2.2C10.663 2.2 10.6645 2.2 10.666 2.2C10.6676 2.2 10.6691 2.2 10.6706 2.2C10.6721 2.2 10.6736 2.2 10.6751 2.2C10.6766 2.2 10.6781 2.2 10.6796 2.2C10.6812 2.2 10.6827 2.2 10.6842 2.2C10.6857 2.2 10.6872 2.2 10.6887 2.2C10.6902 2.2 10.6917 2.2 10.6932 2.2C10.6947 2.2 10.6963 2.2 10.6978 2.2C10.6993 2.2 10.7008 2.2 10.7023 2.2C10.7038 2.2 10.7053 2.2 10.7068 2.2C10.7083 2.2 10.7098 2.2 10.7113 2.2C10.7128 2.2 10.7143 2.2 10.7159 2.2C10.7174 2.2 10.7189 2.2 10.7204 2.2C10.7219 2.2 10.7234 2.2 10.7249 2.2C10.7264 2.2 10.7279 2.2 10.7294 2.2C10.7309 2.2 10.7324 2.2 10.7339 2.2C10.7354 2.2 10.7369 2.2 10.7384 2.2C10.7399 2.2 10.7414 2.2 10.7429 2.2C10.7445 2.2 10.746 2.2 10.7475 2.2C10.749 2.2 10.7505 2.2 10.752 2.2C10.7535 2.2 10.755 2.2 10.7565 2.2C10.758 2.2 10.7595 2.2 10.761 2.2C10.7625 2.2 10.764 2.2 10.7655 2.2C10.767 2.2 10.7685 2.2 10.77 2.2C10.7715 2.2 10.773 2.2 10.7745 2.2C10.776 2.2 10.7775 2.2 10.779 2.2C10.7805 2.2 10.782 2.2 10.7834 2.2C10.7849 2.2 10.7864 2.2 10.7879 2.2C10.7894 2.2 10.7909 2.2 10.7924 2.2C10.7939 2.2 10.7954 2.2 10.7969 2.2C10.7984 2.2 10.7999 2.2 10.8014 2.2C10.8029 2.2 10.8044 2.2 10.8059 2.2C10.8074 2.2 10.8088 2.2 10.8103 2.2C10.8118 2.2 10.8133 2.2 10.8148 2.2C10.8163 2.2 10.8178 2.2 10.8193 2.2C10.8208 2.2 10.8223 2.2 10.8237 2.2C10.8252 2.2 10.8267 2.2 10.8282 2.2C10.8297 2.2 10.8312 2.2 10.8327 2.2C10.8342 2.2 10.8356 2.2 10.8371 2.2C10.8386 2.2 10.8401 2.2 10.8416 2.2C10.8431 2.2 10.8445 2.2 10.846 2.2C10.8475 2.2 10.849 2.2 10.8505 2.2C10.852 2.2 10.8534 2.2 10.8549 2.2C10.8564 2.2 10.8579 2.2 10.8594 2.2C10.8608 2.2 10.8623 2.2 10.8638 2.2C10.8653 2.2 10.8667 2.2 10.8682 2.2C10.8697 2.2 10.8712 2.2 10.8726 2.2C10.8741 2.2 10.8756 2.2 10.8771 2.2C10.8785 2.2 10.88 2.2 10.8815 2.2C10.883 2.2 10.8844 2.2 10.8859 2.2C10.8874 2.2 10.8889 2.2 10.8903 2.2C10.8918 2.2 10.8933 2.2 10.8947 2.2C10.8962 2.2 10.8977 2.2 10.8991 2.2C10.9006 2.2 10.9021 2.2 10.9035 2.2C10.905 2.2 10.9065 2.2 10.9079 2.2C10.9094 2.2 10.9109 2.2 10.9123 2.2C10.9138 2.2 10.9152 2.2 10.9167 2.2C10.9182 2.2 10.9196 2.2 10.9211 2.2C10.9225 2.2 10.924 2.2 10.9255 2.2C10.9269 2.2 10.9284 2.2 10.9298 2.2C10.9313 2.2 10.9328 2.2 10.9342 2.2C10.9357 2.2 10.9371 2.2 10.9386 2.2C10.94 2.2 10.9415 2.2 10.9429 2.2C10.9444 2.2 10.9458 2.2 10.9473 2.2C10.9487 2.2 10.9502 2.2 10.9516 2.2C10.9531 2.2 10.9545 2.2 10.956 2.2C10.9574 2.2 10.9589 2.2 10.9603 2.2C10.9618 2.2 10.9632 2.2 10.9647 2.2C10.9661 2.2 10.9675 2.2 10.969 2.2C10.9704 2.2 10.9719 2.2 10.9733 2.2C10.9747 2.2 10.9762 2.2 10.9776 2.2C10.9791 2.2 10.9805 2.2 10.9819 2.2C10.9834 2.2 10.9848 2.2 10.9862 2.2C10.9877 2.2 10.9891 2.2 10.9905 2.2C10.992 2.2 10.9934 2.2 10.9948 2.2C10.9963 2.2 10.9977 2.2 10.9991 2.2C11.0006 2.2 11.002 2.2 11.0034 2.2C11.0048 2.2 11.0063 2.2 11.0077 2.2C11.0091 2.2 11.0106 2.2 11.012 2.2C11.0134 2.2 11.0148 2.2 11.0162 2.2C11.0177 2.2 11.0191 2.2 11.0205 2.2C11.0219 2.2 11.0233 2.2 11.0248 2.2C11.0262 2.2 11.0276 2.2 11.029 2.2C11.0304 2.2 11.0318 2.2 11.0333 2.2C11.0347 2.2 11.0361 2.2 11.0375 2.2C11.0389 2.2 11.0403 2.2 11.0417 2.2C11.0431 2.2 11.0445 2.2 11.046 2.2C11.0474 2.2 11.0488 2.2 11.0502 2.2C11.0516 2.2 11.053 2.2 11.0544 2.2C11.0558 2.2 11.0572 2.2 11.0586 2.2C11.06 2.2 11.0614 2.2 11.0628 2.2C11.0642 2.2 11.0656 2.2 11.067 2.2C11.0684 2.2 11.0698 2.2 11.0712 2.2C11.0726 2.2 11.074 2.2 11.0753 2.2C11.0767 2.2 11.0781 2.2 11.0795 2.2C11.0809 2.2 11.0823 2.2 11.0837 2.2C11.0851 2.2 11.0865 2.2 11.0878 2.2C11.0892 2.2 11.0906 2.2 11.092 2.2C11.0934 2.2 11.0948 2.2 11.0961 2.2C11.0975 2.2 11.0989 2.2 11.1003 2.2C11.1017 2.2 11.103 2.2 11.1044 2.2C11.1058 2.2 11.1072 2.2 11.1085 2.2C11.1099 2.2 11.1113 2.2 11.1126 2.2C11.114 2.2 11.1154 2.2 11.1168 2.2C11.1181 2.2 11.1195 2.2 11.1209 2.2C11.1222 2.2 11.1236 2.2 11.1249 2.2C11.1263 2.2 11.1277 2.2 11.129 2.2C11.1304 2.2 11.1318 2.2 11.1331 2.2C11.1345 2.2 11.1358 2.2 11.1372 2.2C11.1385 2.2 11.1399 2.2 11.1412 2.2C11.1426 2.2 11.1439 2.2 11.1453 2.2C11.1466 2.2 11.148 2.2 11.1493 2.2C11.1507 2.2 11.152 2.2 11.1534 2.2C11.1547 2.2 11.1561 2.2 11.1574 2.2C11.1588 2.2 11.1601 2.2 11.1614 2.2C11.1628 2.2 11.1641 2.2 11.1654 2.2C11.1668 2.2 11.1681 2.2 11.1695 2.2C11.1708 2.2 11.1721 2.2 11.1735 2.2C11.1748 2.2 11.1761 2.2 11.1774 2.2C11.1788 2.2 11.1801 2.2 11.1814 2.2C11.1827 2.2 11.1841 2.2 11.1854 2.2C11.1867 2.2 11.188 2.2 11.1894 2.2C11.1907 2.2 11.192 2.2 11.1933 2.2C11.1946 2.2 11.1959 2.2 11.1973 2.2C11.1986 2.2 11.1999 2.2 11.2012 2.2C11.2025 2.2 11.2038 2.2 11.2051 2.2C11.2064 2.2 11.2077 2.2 11.209 2.2C11.2104 2.2 11.2117 2.2 11.213 2.2C11.2143 2.2 11.2156 2.2 11.2169 2.2C11.2182 2.2 11.2195 2.2 11.2208 2.2C11.222 2.2 11.2233 2.2 11.2246 2.2C11.2259 2.2 11.2272 2.2 11.2285 2.2C11.2298 2.2 11.2311 2.2 11.2324 2.2C11.2337 2.2 11.2349 2.2 11.2362 2.2C11.2375 2.2 11.2388 2.2 11.2401 2.2C11.2414 2.2 11.2426 2.2 11.2439 2.2C11.2452 2.2 11.2465 2.2 11.2477 2.2C11.249 2.2 11.2503 2.2 11.2516 2.2C11.2528 2.2 11.2541 2.2 11.2554 2.2C11.2566 2.2 11.2579 2.2 11.2592 2.2C11.2604 2.2 11.2617 2.2 11.263 2.2C11.2642 2.2 11.2655 2.2 11.2667 2.2C11.268 2.2 11.2693 2.2 11.2705 2.2C11.2718 2.2 11.273 2.2 11.2743 2.2C11.2755 2.2 11.2768 2.2 11.278 2.2C11.2793 2.2 11.2805 2.2 11.2818 2.2C11.283 2.2 11.2842 2.2 11.2855 2.2C11.2867 2.2 11.288 2.2 11.2892 2.2C11.2904 2.2 11.2917 2.2 11.2929 2.2C11.2941 2.2 11.2954 2.2 11.2966 2.2C11.2978 2.2 11.2991 2.2 11.3003 2.2C11.3015 2.2 11.3028 2.2 11.304 2.2C11.3052 2.2 11.3064 2.2 11.3076 2.2C11.3089 2.2 11.3101 2.2 11.3113 2.2C11.3125 2.2 11.3137 2.2 11.3149 2.2C11.3162 2.2 11.3174 2.2 11.3186 2.2C11.3198 2.2 11.321 2.2 11.3222 2.2C11.3234 2.2 11.3246 2.2 11.3258 2.2C11.327 2.2 11.3282 2.2 11.3294 2.2C11.3306 2.2 11.3318 2.2 11.333 2.2C11.3342 2.2 11.3354 2.2 11.3366 2.2C11.3378 2.2 11.339 2.2 11.3402 2.2C11.3414 2.2 11.3425 2.2 11.3437 2.2C11.3449 2.2 11.3461 2.2 11.3473 2.2C11.3484 2.2 11.3496 2.2 11.3508 2.2C11.352 2.2 11.3532 2.2 11.3543 2.2C11.3555 2.2 11.3567 2.2 11.3578 2.2C11.359 2.2 11.3602 2.2 11.3613 2.2C11.3625 2.2 11.3637 2.2 11.3648 2.2C11.366 2.2 11.3672 2.2 11.3683 2.2C11.3695 2.2 11.3706 2.2 11.3718 2.2C11.3729 2.2 11.3741 2.2 11.3752 2.2C11.3764 2.2 11.3775 2.2 11.3787 2.2C11.3798 2.2 11.381 2.2 11.3821 2.2C11.3832 2.2 11.3844 2.2 11.3855 2.2C11.3867 2.2 11.3878 2.2 11.3889 2.2C11.3901 2.2 11.3912 2.2 11.3923 2.2C11.3935 2.2 11.3946 2.2 11.3957 2.2C11.3968 2.2 11.398 2.2 11.3991 2.2C11.4002 2.2 11.4013 2.2 11.4024 2.2C11.4036 2.2 11.4047 2.2 11.4058 2.2C11.4069 2.2 11.408 2.2 11.4091 2.2C11.4102 2.2 11.4113 2.2 11.4124 2.2C11.4135 2.2 11.4146 2.2 11.4157 2.2C11.4168 2.2 11.4179 2.2 11.419 2.2C11.4201 2.2 11.4212 2.2 11.4223 2.2C11.4234 2.2 11.4245 2.2 11.4256 2.2C11.4267 2.2 11.4278 2.2 11.4289 2.2C11.4299 2.2 11.431 2.2 11.4321 2.2C11.4332 2.2 11.4343 2.2 11.4353 2.2C11.4364 2.2 11.4375 2.2 11.4385 2.2C11.4396 2.2 11.4407 2.2 11.4418 2.2C11.4428 2.2 11.4439 2.2 11.4449 2.2C11.446 2.2 11.4471 2.2 11.4481 2.2C11.4492 2.2 11.4502 2.2 11.4513 2.2C11.4523 2.2 11.4534 2.2 11.4544 2.2C11.4555 2.2 11.4565 2.2 11.4576 2.2C11.4586 2.2 11.4597 2.2 11.4607 2.2C11.4618 2.2 11.4628 2.2 11.4638 2.2C11.4649 2.2 11.4659 2.2 11.4669 2.2C11.468 2.2 11.469 2.2 11.47 2.2C11.471 2.2 11.4721 2.2 11.4731 2.2C11.4741 2.2 11.4751 2.2 11.4761 2.2C11.4772 2.2 11.4782 2.2 11.4792 2.2C11.4802 2.2 11.4812 2.2 11.4822 2.2C11.4832 2.2 11.4842 2.2 11.4852 2.2C11.4862 2.2 11.4872 2.2 11.4882 2.2C11.4892 2.2 11.4902 2.2 11.4912 2.2C11.4922 2.2 11.4932 2.2 11.4942 2.2C11.4952 2.2 11.4962 2.2 11.4972 2.2C11.4981 2.2 11.4991 2.2 11.5001 2.2C11.5011 2.2 11.5021 2.2 11.503 2.2C11.504 2.2 11.505 2.2 11.506 2.2C11.5069 2.2 11.5079 2.2 11.5089 2.2C11.5098 2.2 11.5108 2.2 11.5117 2.2C11.5127 2.2 11.5137 2.2 11.5146 2.2C11.5156 2.2 11.5165 2.2 11.5175 2.2C11.5184 2.2 11.5194 2.2 11.5203 2.2C11.5213 2.2 11.5222 2.2 11.5232 2.2C11.5241 2.2 11.525 2.2 11.526 2.2C11.5269 2.2 11.5278 2.2 11.5288 2.2C11.5297 2.2 11.5306 2.2 11.5316 2.2C11.5325 2.2 11.5334 2.2 11.5343 2.2C11.5352 2.2 11.5362 2.2 11.5371 2.2C11.538 2.2 11.5389 2.2 11.5398 2.2C11.5407 2.2 11.5416 2.2 11.5425 2.2C11.5435 2.2 11.5444 2.2 11.5453 2.2C11.5462 2.2 11.5471 2.2 11.548 2.2C11.5488 2.2 11.5497 2.2 11.5506 2.2C11.5515 2.2 11.5524 2.2 11.5533 2.2C11.5542 2.2 11.5551 2.2 11.5559 2.2C11.5568 2.2 11.5577 2.2 11.5586 2.2C11.5594 2.2 11.5603 2.2 11.5612 2.2C11.5621 2.2 11.5629 2.2 11.5638 2.2C11.5647 2.2 11.5655 2.2 11.5664 2.2C11.5672 2.2 11.5681 2.2 11.5689 2.2C11.5698 2.2 11.5707 2.2 11.5715 2.2C11.5723 2.2 11.5732 2.2 11.574 2.2C11.5749 2.2 11.5757 2.2 11.5766 2.2C11.5774 2.2 11.5782 2.2 11.5791 2.2C11.5799 2.2 11.5807 2.2 11.5816 2.2C11.5824 2.2 11.5832 2.2 11.584 2.2C11.5848 2.2 11.5857 2.2 11.5865 2.2C11.5873 2.2 11.5881 2.2 11.5889 2.2C11.5897 2.2 11.5905 2.2 11.5913 2.2C11.5921 2.2 11.593 2.2 11.5938 2.2C11.5946 2.2 11.5953 2.2 11.5961 2.2C11.5969 2.2 11.5977 2.2 11.5985 2.2C11.5993 2.2 11.6001 2.2 11.6009 2.2C11.6017 2.2 11.6024 2.2 11.6032 2.2C11.604 2.2 11.6048 2.2 11.6055 2.2C11.6063 2.2 11.6071 2.2 11.6078 2.2C11.6086 2.2 11.6094 2.2 11.6101 2.2C11.6109 2.2 11.6117 2.2 11.6124 2.2C11.6132 2.2 11.6139 2.2 11.6147 2.2C11.6154 2.2 11.6162 2.2 11.6169 2.2C11.6176 2.2 11.6184 2.2 11.6191 2.2C11.6199 2.2 11.6206 2.2 11.6213 2.2C11.6221 2.2 11.6228 2.2 11.6235 2.2C11.6242 2.2 11.625 2.2 11.6257 2.2C11.6264 2.2 11.6271 2.2 11.6278 2.2C11.6286 2.2 11.6293 2.2 11.63 2.2C11.6307 2.2 11.6314 2.2 11.6321 2.2C11.6328 2.2 11.6335 2.2 11.6342 2.2C11.6349 2.2 11.6356 2.2 11.6363 2.2C11.637 2.2 11.6376 2.2 11.6383 2.2C11.639 2.2 11.6397 2.2 11.6404 2.2C11.6411 2.2 11.6417 2.2 11.6424 2.2C11.6431 2.2 11.6438 2.2 11.6444 2.2C11.6451 2.2 11.6457 2.2 11.6464 2.2C11.6471 2.2 11.6477 2.2 11.6484 2.2C11.649 2.2 11.6497 2.2 11.6503 2.2C11.651 2.2 11.6516 2.2 11.6523 2.2C11.6529 2.2 11.6536 2.2 11.6542 2.2C11.6548 2.2 11.6555 2.2 11.6561 2.2C11.6567 2.2 11.6574 2.2 11.658 2.2C11.6586 2.2 11.6592 2.2 11.6598 2.2C11.6605 2.2 11.6611 2.2 11.6617 2.2C11.6623 2.2 11.6629 2.2 11.6635 2.2C11.6641 2.2 11.6647 2.2 11.6653 2.2C11.6659 2.2 11.6665 2.2 11.6671 2.2C11.6677 2.2 11.6683 2.2 11.6689 2.2C11.6695 2.2 11.6701 2.2 11.6706 2.2C11.6712 2.2 11.6718 2.2 11.6724 2.2C11.6729 2.2 11.6735 2.2 11.6741 2.2C11.6747 2.2 11.6752 2.2 11.6758 2.2C11.6763 2.2 11.6769 2.2 11.6775 2.2C11.678 2.2 11.6786 2.2 11.6791 2.2C11.6797 2.2 11.6802 2.2 11.6808 2.2C11.6813 2.2 11.6818 2.2 11.6824 2.2C11.6829 2.2 11.6834 2.2 11.684 2.2C11.6845 2.2 11.685 2.2 11.6855 2.2C11.6861 2.2 11.6866 2.2 11.6871 2.2C11.6876 2.2 11.6881 2.2 11.6886 2.2C11.6892 2.2 11.6897 2.2 11.6902 2.2C11.6907 2.2 11.6912 2.2 11.6917 2.2C11.6922 2.2 11.6927 2.2 11.6932 2.2C11.6936 2.2 11.6941 2.2 11.6946 2.2C11.6951 2.2 11.6956 2.2 11.6961 2.2C11.6965 2.2 11.697 2.2 11.6975 2.2C11.6979 2.2 11.6984 2.2 11.6989 2.2C11.6993 2.2 11.6998 2.2 11.7003 2.2C11.7007 2.2 11.7012 2.2 11.7016 2.2C11.7021 2.2 11.7025 2.2 11.703 2.2C11.7034 2.2 11.7038 2.2 11.7043 2.2C11.7047 2.2 11.7052 2.2 11.7056 2.2C11.706 2.2 11.7064 2.2 11.7069 2.2C11.7073 2.2 11.7077 2.2 11.7081 2.2C11.7085 2.2 11.709 2.2 11.7094 2.2C11.7098 2.2 11.7102 2.2 11.7106 2.2C11.711 2.2 11.7114 2.2 11.7118 2.2C11.7122 2.2 11.7126 2.2 11.713 2.2C11.7133 2.2 11.7137 2.2 11.7141 2.2C11.7145 2.2 11.7149 2.2 11.7152 2.2C11.7156 2.2 11.716 2.2 11.7164 2.2C11.7167 2.2 11.7171 2.2 11.7175 2.2C11.7178 2.2 11.7182 2.2 11.7185 2.2C11.7189 2.2 11.7192 2.2 11.7196 2.2C11.7199 2.2 11.7203 2.2 11.7206 2.2C11.721 2.2 11.7213 2.2 11.7216 2.2C11.722 2.2 11.7223 2.2 11.7226 2.2C11.7229 2.2 11.7233 2.2 11.7236 2.2C11.7239 2.2 11.7242 2.2 11.7245 2.2C11.7248 2.2 11.7251 2.2 11.7254 2.2C11.7258 2.2 11.7261 2.2 11.7263 2.2C11.7266 2.2 11.7269 2.2 11.7272 2.2C11.7275 2.2 11.7278 2.2 11.7281 2.2C11.7284 2.2 11.7287 2.2 11.7289 2.2C11.7292 2.2 11.7295 2.2 11.7297 2.2C11.73 2.2 11.7303 2.2 11.7305 2.2C11.7308 2.2 11.7311 2.2 11.7313 2.2C11.7316 2.2 11.7318 2.2 11.7321 2.2C11.7323 2.2 11.7325 2.2 11.7328 2.2C11.733 2.2 11.7333 2.2 11.7335 2.2C11.7337 2.2 11.7339 2.2 11.7342 2.2C11.7344 2.2 11.7346 2.2 11.7348 2.2C11.735 2.2 11.7353 2.2 11.7355 2.2C11.7357 2.2 11.7359 2.2 11.7361 2.2C11.7363 2.2 11.7365 2.2 11.7367 2.2C11.7369 2.2 11.7371 2.2 11.7373 2.2C11.7374 2.2 11.7376 2.2 11.7378 2.2C11.738 2.2 11.7382 2.2 11.7383 2.2C11.7385 2.2 11.7387 2.2 11.7388 2.2C11.739 2.2 11.7392 2.2 11.7393 2.2C11.7395 2.2 11.7396 2.2 11.7398 2.2C11.7399 2.2 11.7401 2.2 11.7402 2.2C11.7403 2.2 11.7405 2.2 11.7406 2.2C11.7408 2.2 11.7409 2.2 11.741 2.2C11.7411 2.2 11.7413 2.2 11.7414 2.2C11.7415 2.2 11.7416 2.2 11.7417 2.2C11.7418 2.2 11.7419 2.2 11.742 2.2C11.7421 2.2 11.7422 2.2 11.7423 2.2C11.7424 2.2 11.7425 2.2 11.7426 2.2C11.7427 2.2 11.7428 2.2 11.7429 2.2C11.7429 2.2 11.743 2.2 11.7431 2.2C11.7432 2.2 11.7432 2.2 11.7433 2.2C11.7433 2.2 11.7434 2.2 11.7435 2.2C11.7435 2.2 11.7436 2.2 11.7436 2.2C11.7437 2.2 11.7437 2.2 11.7437 2.2C11.7438 2.2 11.7438 2.2 11.7439 2.2C11.7439 2.2 11.7439 2.2 11.7439 2.2C11.744 2.2 11.744 2.2 11.744 2.2C11.744 2.2 11.744 2.2 11.744 2.2C11.744 2.2 11.744 2.2 11.744 1.6C11.744 1 11.744 1 11.744 1C11.744 1 11.744 1 11.744 1C11.744 1 11.744 1 11.7439 1C11.7439 1 11.7439 1 11.7439 1C11.7438 1 11.7438 1 11.7437 1C11.7437 1 11.7437 1 11.7436 1C11.7436 1 11.7435 1 11.7435 1C11.7434 1 11.7433 1 11.7433 1C11.7432 1 11.7432 1 11.7431 1C11.743 1 11.7429 1 11.7429 1C11.7428 1 11.7427 1 11.7426 1C11.7425 1 11.7424 1 11.7423 1C11.7422 1 11.7421 1 11.742 1C11.7419 1 11.7418 1 11.7417 1C11.7416 1 11.7415 1 11.7414 1C11.7413 1 11.7411 1 11.741 1C11.7409 1 11.7408 1 11.7406 1C11.7405 1 11.7403 1 11.7402 1C11.7401 1 11.7399 1 11.7398 1C11.7396 1 11.7395 1 11.7393 1C11.7392 1 11.739 1 11.7388 1C11.7387 1 11.7385 1 11.7383 1C11.7382 1 11.738 1 11.7378 1C11.7376 1 11.7374 1 11.7373 1C11.7371 1 11.7369 1 11.7367 1C11.7365 1 11.7363 1 11.7361 1C11.7359 1 11.7357 1 11.7355 1C11.7353 1 11.735 1 11.7348 1C11.7346 1 11.7344 1 11.7342 1C11.7339 1 11.7337 1 11.7335 1C11.7333 1 11.733 1 11.7328 1C11.7325 1 11.7323 1 11.7321 1C11.7318 1 11.7316 1 11.7313 1C11.7311 1 11.7308 1 11.7305 1C11.7303 1 11.73 1 11.7297 1C11.7295 1 11.7292 1 11.7289 1C11.7287 1 11.7284 1 11.7281 1C11.7278 1 11.7275 1 11.7272 1C11.7269 1 11.7266 1 11.7263 1C11.7261 1 11.7258 1 11.7254 1C11.7251 1 11.7248 1 11.7245 1C11.7242 1 11.7239 1 11.7236 1C11.7233 1 11.7229 1 11.7226 1C11.7223 1 11.722 1 11.7216 1C11.7213 1 11.721 1 11.7206 1C11.7203 1 11.7199 1 11.7196 1C11.7192 1 11.7189 1 11.7185 1C11.7182 1 11.7178 1 11.7175 1C11.7171 1 11.7167 1 11.7164 1C11.716 1 11.7156 1 11.7152 1C11.7149 1 11.7145 1 11.7141 1C11.7137 1 11.7133 1 11.713 1C11.7126 1 11.7122 1 11.7118 1C11.7114 1 11.711 1 11.7106 1C11.7102 1 11.7098 1 11.7094 1C11.709 1 11.7085 1 11.7081 1C11.7077 1 11.7073 1 11.7069 1C11.7064 1 11.706 1 11.7056 1C11.7052 1 11.7047 1 11.7043 1C11.7038 1 11.7034 1 11.703 1C11.7025 1 11.7021 1 11.7016 1C11.7012 1 11.7007 1 11.7003 1C11.6998 1 11.6993 1 11.6989 1C11.6984 1 11.6979 1 11.6975 1C11.697 1 11.6965 1 11.6961 1C11.6956 1 11.6951 1 11.6946 1C11.6941 1 11.6936 1 11.6932 1C11.6927 1 11.6922 1 11.6917 1C11.6912 1 11.6907 1 11.6902 1C11.6897 1 11.6892 1 11.6886 1C11.6881 1 11.6876 1 11.6871 1C11.6866 1 11.6861 1 11.6855 1C11.685 1 11.6845 1 11.684 1C11.6834 1 11.6829 1 11.6824 1C11.6818 1 11.6813 1 11.6808 1C11.6802 1 11.6797 1 11.6791 1C11.6786 1 11.678 1 11.6775 1C11.6769 1 11.6763 1 11.6758 1C11.6752 1 11.6747 1 11.6741 1C11.6735 1 11.6729 1 11.6724 1C11.6718 1 11.6712 1 11.6706 1C11.6701 1 11.6695 1 11.6689 1C11.6683 1 11.6677 1 11.6671 1C11.6665 1 11.6659 1 11.6653 1C11.6647 1 11.6641 1 11.6635 1C11.6629 1 11.6623 1 11.6617 1C11.6611 1 11.6605 1 11.6598 1C11.6592 1 11.6586 1 11.658 1C11.6574 1 11.6567 1 11.6561 1C11.6555 1 11.6548 1 11.6542 1C11.6536 1 11.6529 1 11.6523 1C11.6516 1 11.651 1 11.6503 1C11.6497 1 11.649 1 11.6484 1C11.6477 1 11.6471 1 11.6464 1C11.6457 1 11.6451 1 11.6444 1C11.6438 1 11.6431 1 11.6424 1C11.6417 1 11.6411 1 11.6404 1C11.6397 1 11.639 1 11.6383 1C11.6376 1 11.637 1 11.6363 1C11.6356 1 11.6349 1 11.6342 1C11.6335 1 11.6328 1 11.6321 1C11.6314 1 11.6307 1 11.63 1C11.6293 1 11.6286 1 11.6278 1C11.6271 1 11.6264 1 11.6257 1C11.625 1 11.6242 1 11.6235 1C11.6228 1 11.6221 1 11.6213 1C11.6206 1 11.6199 1 11.6191 1C11.6184 1 11.6176 1 11.6169 1C11.6162 1 11.6154 1 11.6147 1C11.6139 1 11.6132 1 11.6124 1C11.6117 1 11.6109 1 11.6101 1C11.6094 1 11.6086 1 11.6078 1C11.6071 1 11.6063 1 11.6055 1C11.6048 1 11.604 1 11.6032 1C11.6024 1 11.6017 1 11.6009 1C11.6001 1 11.5993 1 11.5985 1C11.5977 1 11.5969 1 11.5961 1C11.5953 1 11.5946 1 11.5938 1C11.593 1 11.5921 1 11.5913 1C11.5905 1 11.5897 1 11.5889 1C11.5881 1 11.5873 1 11.5865 1C11.5857 1 11.5848 1 11.584 1C11.5832 1 11.5824 1 11.5816 1C11.5807 1 11.5799 1 11.5791 1C11.5782 1 11.5774 1 11.5766 1C11.5757 1 11.5749 1 11.574 1C11.5732 1 11.5723 1 11.5715 1C11.5707 1 11.5698 1 11.5689 1C11.5681 1 11.5672 1 11.5664 1C11.5655 1 11.5647 1 11.5638 1C11.5629 1 11.5621 1 11.5612 1C11.5603 1 11.5594 1 11.5586 1C11.5577 1 11.5568 1 11.5559 1C11.5551 1 11.5542 1 11.5533 1C11.5524 1 11.5515 1 11.5506 1C11.5497 1 11.5488 1 11.548 1C11.5471 1 11.5462 1 11.5453 1C11.5444 1 11.5435 1 11.5425 1C11.5416 1 11.5407 1 11.5398 1C11.5389 1 11.538 1 11.5371 1C11.5362 1 11.5352 1 11.5343 1C11.5334 1 11.5325 1 11.5316 1C11.5306 1 11.5297 1 11.5288 1C11.5278 1 11.5269 1 11.526 1C11.525 1 11.5241 1 11.5232 1C11.5222 1 11.5213 1 11.5203 1C11.5194 1 11.5184 1 11.5175 1C11.5165 1 11.5156 1 11.5146 1C11.5137 1 11.5127 1 11.5117 1C11.5108 1 11.5098 1 11.5089 1C11.5079 1 11.5069 1 11.506 1C11.505 1 11.504 1 11.503 1C11.5021 1 11.5011 1 11.5001 1C11.4991 1 11.4981 1 11.4972 1C11.4962 1 11.4952 1 11.4942 1C11.4932 1 11.4922 1 11.4912 1C11.4902 1 11.4892 1 11.4882 1C11.4872 1 11.4862 1 11.4852 1C11.4842 1 11.4832 1 11.4822 1C11.4812 1 11.4802 1 11.4792 1C11.4782 1 11.4772 1 11.4761 1C11.4751 1 11.4741 1 11.4731 1C11.4721 1 11.471 1 11.47 1C11.469 1 11.468 1 11.4669 1C11.4659 1 11.4649 1 11.4638 1C11.4628 1 11.4618 1 11.4607 1C11.4597 1 11.4586 1 11.4576 1C11.4565 1 11.4555 1 11.4544 1C11.4534 1 11.4523 1 11.4513 1C11.4502 1 11.4492 1 11.4481 1C11.4471 1 11.446 1 11.4449 1C11.4439 1 11.4428 1 11.4418 1C11.4407 1 11.4396 1 11.4385 1C11.4375 1 11.4364 1 11.4353 1C11.4343 1 11.4332 1 11.4321 1C11.431 1 11.4299 1 11.4289 1C11.4278 1 11.4267 1 11.4256 1C11.4245 1 11.4234 1 11.4223 1C11.4212 1 11.4201 1 11.419 1C11.4179 1 11.4168 1 11.4157 1C11.4146 1 11.4135 1 11.4124 1C11.4113 1 11.4102 1 11.4091 1C11.408 1 11.4069 1 11.4058 1C11.4047 1 11.4036 1 11.4024 1C11.4013 1 11.4002 1 11.3991 1C11.398 1 11.3968 1 11.3957 1C11.3946 1 11.3935 1 11.3923 1C11.3912 1 11.3901 1 11.3889 1C11.3878 1 11.3867 1 11.3855 1C11.3844 1 11.3832 1 11.3821 1C11.381 1 11.3798 1 11.3787 1C11.3775 1 11.3764 1 11.3752 1C11.3741 1 11.3729 1 11.3718 1C11.3706 1 11.3695 1 11.3683 1C11.3672 1 11.366 1 11.3648 1C11.3637 1 11.3625 1 11.3613 1C11.3602 1 11.359 1 11.3578 1C11.3567 1 11.3555 1 11.3543 1C11.3532 1 11.352 1 11.3508 1C11.3496 1 11.3484 1 11.3473 1C11.3461 1 11.3449 1 11.3437 1C11.3425 1 11.3414 1 11.3402 1C11.339 1 11.3378 1 11.3366 1C11.3354 1 11.3342 1 11.333 1C11.3318 1 11.3306 1 11.3294 1C11.3282 1 11.327 1 11.3258 1C11.3246 1 11.3234 1 11.3222 1C11.321 1 11.3198 1 11.3186 1C11.3174 1 11.3162 1 11.3149 1C11.3137 1 11.3125 1 11.3113 1C11.3101 1 11.3089 1 11.3076 1C11.3064 1 11.3052 1 11.304 1C11.3028 1 11.3015 1 11.3003 1C11.2991 1 11.2978 1 11.2966 1C11.2954 1 11.2941 1 11.2929 1C11.2917 1 11.2904 1 11.2892 1C11.288 1 11.2867 1 11.2855 1C11.2842 1 11.283 1 11.2818 1C11.2805 1 11.2793 1 11.278 1C11.2768 1 11.2755 1 11.2743 1C11.273 1 11.2718 1 11.2705 1C11.2693 1 11.268 1 11.2667 1C11.2655 1 11.2642 1 11.263 1C11.2617 1 11.2604 1 11.2592 1C11.2579 1 11.2566 1 11.2554 1C11.2541 1 11.2528 1 11.2516 1C11.2503 1 11.249 1 11.2477 1C11.2465 1 11.2452 1 11.2439 1C11.2426 1 11.2414 1 11.2401 1C11.2388 1 11.2375 1 11.2362 1C11.2349 1 11.2337 1 11.2324 1C11.2311 1 11.2298 1 11.2285 1C11.2272 1 11.2259 1 11.2246 1C11.2233 1 11.222 1 11.2208 1C11.2195 1 11.2182 1 11.2169 1C11.2156 1 11.2143 1 11.213 1C11.2117 1 11.2104 1 11.209 1C11.2077 1 11.2064 1 11.2051 1C11.2038 1 11.2025 1 11.2012 1C11.1999 1 11.1986 1 11.1973 1C11.1959 1 11.1946 1 11.1933 1C11.192 1 11.1907 1 11.1894 1C11.188 1 11.1867 1 11.1854 1C11.1841 1 11.1827 1 11.1814 1C11.1801 1 11.1788 1 11.1774 1C11.1761 1 11.1748 1 11.1735 1C11.1721 1 11.1708 1 11.1695 1C11.1681 1 11.1668 1 11.1654 1C11.1641 1 11.1628 1 11.1614 1C11.1601 1 11.1588 1 11.1574 1C11.1561 1 11.1547 1 11.1534 1C11.152 1 11.1507 1 11.1493 1C11.148 1 11.1466 1 11.1453 1C11.1439 1 11.1426 1 11.1412 1C11.1399 1 11.1385 1 11.1372 1C11.1358 1 11.1345 1 11.1331 1C11.1318 1 11.1304 1 11.129 1C11.1277 1 11.1263 1 11.1249 1C11.1236 1 11.1222 1 11.1209 1C11.1195 1 11.1181 1 11.1168 1C11.1154 1 11.114 1 11.1126 1C11.1113 1 11.1099 1 11.1085 1C11.1072 1 11.1058 1 11.1044 1C11.103 1 11.1017 1 11.1003 1C11.0989 1 11.0975 1 11.0961 1C11.0948 1 11.0934 1 11.092 1C11.0906 1 11.0892 1 11.0878 1C11.0865 1 11.0851 1 11.0837 1C11.0823 1 11.0809 1 11.0795 1C11.0781 1 11.0767 1 11.0753 1C11.074 1 11.0726 1 11.0712 1C11.0698 1 11.0684 1 11.067 1C11.0656 1 11.0642 1 11.0628 1C11.0614 1 11.06 1 11.0586 1C11.0572 1 11.0558 1 11.0544 1C11.053 1 11.0516 1 11.0502 1C11.0488 1 11.0474 1 11.046 1C11.0445 1 11.0431 1 11.0417 1C11.0403 1 11.0389 1 11.0375 1C11.0361 1 11.0347 1 11.0333 1C11.0318 1 11.0304 1 11.029 1C11.0276 1 11.0262 1 11.0248 1C11.0233 1 11.0219 1 11.0205 1C11.0191 1 11.0177 1 11.0162 1C11.0148 1 11.0134 1 11.012 1C11.0106 1 11.0091 1 11.0077 1C11.0063 1 11.0048 1 11.0034 1C11.002 1 11.0006 1 10.9991 1C10.9977 1 10.9963 1 10.9948 1C10.9934 1 10.992 1 10.9905 1C10.9891 1 10.9877 1 10.9862 1C10.9848 1 10.9834 1 10.9819 1C10.9805 1 10.9791 1 10.9776 1C10.9762 1 10.9747 1 10.9733 1C10.9719 1 10.9704 1 10.969 1C10.9675 1 10.9661 1 10.9647 1C10.9632 1 10.9618 1 10.9603 1C10.9589 1 10.9574 1 10.956 1C10.9545 1 10.9531 1 10.9516 1C10.9502 1 10.9487 1 10.9473 1C10.9458 1 10.9444 1 10.9429 1C10.9415 1 10.94 1 10.9386 1C10.9371 1 10.9357 1 10.9342 1C10.9328 1 10.9313 1 10.9298 1C10.9284 1 10.9269 1 10.9255 1C10.924 1 10.9225 1 10.9211 1C10.9196 1 10.9182 1 10.9167 1C10.9152 1 10.9138 1 10.9123 1C10.9109 1 10.9094 1 10.9079 1C10.9065 1 10.905 1 10.9035 1C10.9021 1 10.9006 1 10.8991 1C10.8977 1 10.8962 1 10.8947 1C10.8933 1 10.8918 1 10.8903 1C10.8889 1 10.8874 1 10.8859 1C10.8844 1 10.883 1 10.8815 1C10.88 1 10.8785 1 10.8771 1C10.8756 1 10.8741 1 10.8726 1C10.8712 1 10.8697 1 10.8682 1C10.8667 1 10.8653 1 10.8638 1C10.8623 1 10.8608 1 10.8594 1C10.8579 1 10.8564 1 10.8549 1C10.8534 1 10.852 1 10.8505 1C10.849 1 10.8475 1 10.846 1C10.8445 1 10.8431 1 10.8416 1C10.8401 1 10.8386 1 10.8371 1C10.8356 1 10.8342 1 10.8327 1C10.8312 1 10.8297 1 10.8282 1C10.8267 1 10.8252 1 10.8237 1C10.8223 1 10.8208 1 10.8193 1C10.8178 1 10.8163 1 10.8148 1C10.8133 1 10.8118 1 10.8103 1C10.8088 1 10.8074 1 10.8059 1C10.8044 1 10.8029 1 10.8014 1C10.7999 1 10.7984 1 10.7969 1C10.7954 1 10.7939 1 10.7924 1C10.7909 1 10.7894 1 10.7879 1C10.7864 1 10.7849 1 10.7834 1C10.782 1 10.7805 1 10.779 1C10.7775 1 10.776 1 10.7745 1C10.773 1 10.7715 1 10.77 1C10.7685 1 10.767 1 10.7655 1C10.764 1 10.7625 1 10.761 1C10.7595 1 10.758 1 10.7565 1C10.755 1 10.7535 1 10.752 1C10.7505 1 10.749 1 10.7475 1C10.746 1 10.7445 1 10.7429 1C10.7414 1 10.7399 1 10.7384 1C10.7369 1 10.7354 1 10.7339 1C10.7324 1 10.7309 1 10.7294 1C10.7279 1 10.7264 1 10.7249 1C10.7234 1 10.7219 1 10.7204 1C10.7189 1 10.7174 1 10.7159 1C10.7143 1 10.7128 1 10.7113 1C10.7098 1 10.7083 1 10.7068 1C10.7053 1 10.7038 1 10.7023 1C10.7008 1 10.6993 1 10.6978 1C10.6963 1 10.6947 1 10.6932 1C10.6917 1 10.6902 1 10.6887 1C10.6872 1 10.6857 1 10.6842 1C10.6827 1 10.6812 1 10.6796 1C10.6781 1 10.6766 1 10.6751 1C10.6736 1 10.6721 1 10.6706 1C10.6691 1 10.6676 1 10.666 1C10.6645 1 10.663 1 10.6615 1C10.66 1 10.6585 1 10.657 1C10.6555 1 10.654 1 10.6524 1C10.6509 1 10.6494 1 10.6479 1C10.6464 1 10.6449 1 10.6434 1C10.6419 1 10.6403 1 10.6388 1C10.6373 1 10.6358 1 10.6343 1C10.6328 1 10.6313 1 10.6298 1C10.6282 1 10.6267 1 10.6252 1C10.6237 1 10.6222 1 10.6207 1C10.6192 1 10.6176 1 10.6161 1C10.6146 1 10.6131 1 10.6116 1C10.6101 1 10.6086 1 10.6071 1C10.6055 1 10.604 1 10.6025 1C10.601 1 10.5995 1 10.598 1C10.5965 1 10.5949 1 10.5934 1C10.5919 1 10.5904 1 10.5889 1C10.5874 1 10.5859 1 10.5844 1C10.5828 1 10.5813 1 10.5798 1C10.5783 1 10.5768 1 10.5753 1C10.5738 1 10.5723 1 10.5707 1C10.5692 1 10.5677 1 10.5662 1C10.5647 1 10.5632 1 10.5617 1C10.5602 1 10.5586 1 10.5571 1C10.5556 1 10.5541 1 10.5526 1C10.5511 1 10.5496 1 10.5481 1C10.5465 1 10.545 1 10.5435 1C10.542 1 10.5405 1 10.539 1C10.5375 1 10.536 1 10.5345 1C10.5329 1 10.5314 1 10.5299 1C10.5284 1 10.5269 1 10.5254 1C10.5239 1 10.5224 1 10.5209 1C10.5194 1 10.5178 1 10.5163 1C10.5148 1 10.5133 1 10.5118 1C10.5103 1 10.5088 1 10.5073 1C10.5058 1 10.5043 1 10.5028 1C10.5012 1 10.4997 1 10.4982 1C10.4967 1 10.4952 1 10.4937 1C10.4922 1 10.4907 1 10.4892 1C10.4877 1 10.4862 1 10.4847 1C10.4832 1 10.4817 1 10.4802 1C10.4786 1 10.4771 1 10.4756 1C10.4741 1 10.4726 1 10.4711 1C10.4696 1 10.4681 1 10.4666 1C10.4651 1 10.4636 1 10.4621 1C10.4606 1 10.4591 1 10.4576 1C10.4561 1 10.4546 1 10.4531 1C10.4516 1 10.4501 1 10.4486 1C10.4471 1 10.4456 1 10.4441 1C10.4426 1 10.4411 1 10.4396 1C10.4381 1 10.4366 1 10.4351 1C10.4336 1 10.4321 1 10.4306 1C10.4291 1 10.4276 1 10.4261 1C10.4246 1 10.4231 1 10.4216 1C10.4201 1 10.4186 1 10.4171 1C10.4156 1 10.4141 1 10.4126 1C10.4112 1 10.4097 1 10.4082 1C10.4067 1 10.4052 1 10.4037 1C10.4022 1 10.4007 1 10.3992 1C10.3977 1 10.3962 1 10.3947 1C10.3932 1 10.3918 1 10.3903 1C10.3888 1 10.3873 1 10.3858 1C10.3843 1 10.3828 1 10.3813 1C10.3798 1 10.3784 1 10.3769 1C10.3754 1 10.3739 1 10.3724 1C10.3709 1 10.3694 1 10.368 1C10.3665 1 10.365 1 10.3635 1C10.362 1 10.3605 1 10.3591 1C10.3576 1 10.3561 1 10.3546 1C10.3531 1 10.3517 1 10.3502 1C10.3487 1 10.3472 1 10.3457 1C10.3443 1 10.3428 1 10.3413 1C10.3398 1 10.3384 1 10.3369 1C10.3354 1 10.3339 1 10.3325 1C10.331 1 10.3295 1 10.328 1C10.3266 1 10.3251 1 10.3236 1C10.3221 1 10.3207 1 10.3192 1C10.3177 1 10.3163 1 10.3148 1C10.3133 1 10.3119 1 10.3104 1C10.3089 1 10.3075 1 10.306 1C10.3045 1 10.3031 1 10.3016 1C10.3001 1 10.2987 1 10.2972 1C10.2957 1 10.2943 1 10.2928 1C10.2913 1 10.2899 1 10.2884 1C10.287 1 10.2855 1 10.284 1C10.2826 1 10.2811 1 10.2797 1C10.2782 1 10.2768 1 10.2753 1C10.2738 1 10.2724 1 10.2709 1C10.2695 1 10.268 1 10.2666 1C10.2651 1 10.2637 1 10.2622 1C10.2608 1 10.2593 1 10.2579 1C10.2564 1 10.255 1 10.2535 1C10.2521 1 10.2506 1 10.2492 1C10.2477 1 10.2463 1 10.2448 1C10.2434 1 10.242 1 10.2405 1C10.2391 1 10.2376 1 10.2362 1C10.2347 1 10.2333 1 10.2319 1C10.2304 1 10.229 1 10.2276 1C10.2261 1 10.2247 1 10.2232 1C10.2218 1 10.2204 1 10.2189 1C10.2175 1 10.2161 1 10.2146 1C10.2132 1 10.2118 1 10.2103 1C10.2089 1 10.2075 1 10.2061 1C10.2046 1 10.2032 1 10.2018 1C10.2004 1 10.1989 1 10.1975 1C10.1961 1 10.1947 1 10.1932 1C10.1918 1 10.1904 1 10.189 1C10.1875 1 10.1861 1 10.1847 1C10.1833 1 10.1819 1 10.1805 1C10.179 1 10.1776 1 10.1762 1C10.1748 1 10.1734 1 10.172 1C10.1706 1 10.1691 1 10.1677 1C10.1663 1 10.1649 1 10.1635 1C10.1621 1 10.1607 1 10.1593 1C10.1579 1 10.1565 1 10.1551 1C10.1537 1 10.1523 1 10.1509 1C10.1495 1 10.1481 1 10.1467 1C10.1453 1 10.1439 1 10.1425 1C10.1411 1 10.1397 1 10.1383 1C10.1369 1 10.1355 1 10.1341 1C10.1327 1 10.1313 1 10.1299 1C10.1285 1 10.1271 1 10.1258 1C10.1244 1 10.123 1 10.1216 1C10.1202 1 10.1188 1 10.1174 1C10.1161 1 10.1147 1 10.1133 1C10.1119 1 10.1105 1 10.1092 1C10.1078 1 10.1064 1 10.105 1C10.1036 1 10.1023 1 10.1009 1C10.0995 1 10.0981 1 10.0968 1C10.0954 1 10.094 1 10.0927 1C10.0913 1 10.0899 1 10.0886 1C10.0872 1 10.0858 1 10.0845 1C10.0831 1 10.0817 1 10.0804 1C10.079 1 10.0777 1 10.0763 1C10.0749 1 10.0736 1 10.0722 1C10.0709 1 10.0695 1 10.0682 1C10.0668 1 10.0655 1 10.0641 1C10.0628 1 10.0614 1 10.0601 1C10.0587 1 10.0574 1 10.056 1C10.0547 1 10.0533 1 10.052 1C10.0506 1 10.0493 1 10.048 1C10.0466 1 10.0453 1 10.0439 1C10.0426 1 10.0413 1 10.0399 1C10.0386 1 10.0373 1 10.0359 1C10.0346 1 10.0333 1 10.0319 1C10.0306 1 10.0293 1 10.0279 1C10.0266 1 10.0253 1 10.024 1C10.0227 1 10.0213 1 10.02 1C10.0187 1 10.0174 1 10.016 1V2.2ZM4.25605 2.2H5.98405V1H4.25605V2.2ZM7.40005 1V2.2H8.60005V1H7.40005ZM4.25605 9.1H8.86405V7.9H4.25605V9.1ZM4.25605 6.7H11.168V5.5H4.25605V6.7ZM11.744 2.2C11.744 2.2 11.744 2.2 11.744 2.2C11.744 2.2 11.744 2.2 11.744 2.2C11.744 2.2 11.744 2.2 11.744 2.2C11.744 2.2 11.744 2.2 11.744 2.2C11.744 2.2 11.744 2.2 11.744 2.2C11.744 2.2 11.744 2.2 11.744 2.2C11.744 2.2 11.744 2.2 11.744 2.2C11.744 2.2 11.744 2.2 11.744 2.2C11.744 2.2 11.744 2.2 11.744 2.2C11.744 2.2 11.744 2.2 11.744 2.2C11.744 2.2 11.744 2.2 11.744 2.2C11.744 2.2 11.744 2.2 11.744 2.2C11.744 2.2 11.744 2.2 11.744 2.2C11.744 2.2 11.744 2.2 11.744 2.2C11.744 2.2 11.744 2.2 11.744 2.2C11.744 2.2 11.744 2.2 11.744 2.2C11.744 2.2 11.744 2.2 11.744 2.2C11.744 2.2 11.744 2.2 11.744 2.2C11.744 2.2 11.744 2.2 11.744 2.2C11.744 2.2 11.744 2.2 11.744 2.2C11.744 2.2 11.744 2.2 11.744 2.2C11.744 2.2 11.744 2.2 11.744 2.2C11.744 2.2 11.744 2.2 11.744 2.2C11.744 2.2 11.744 2.2 11.744 2.2C11.744 2.2 11.744 2.2 11.744 2.2C11.744 2.2 11.744 2.2 11.744 2.2C11.744 2.2 11.744 2.2 11.744 2.2C11.744 2.2 11.744 2.2 11.744 2.2C11.744 2.2 11.744 2.2 11.744 2.2C11.744 2.2 11.744 2.2 11.744 2.2C11.744 2.2 11.744 2.2 11.744 2.2C11.744 2.2 11.744 2.2 11.744 2.2C11.744 2.2 11.744 2.2 11.744 2.2C11.744 2.2 11.744 2.2 11.744 2.2C11.744 2.2 11.744 2.2 11.744 2.2C11.744 2.2 11.744 2.2 11.744 2.2C11.744 2.2 11.744 2.2 11.744 2.2C11.744 2.2 11.744 2.2 11.744 2.2C11.744 2.2 11.744 2.2 11.744 2.2C11.744 2.2 11.744 2.2 11.744 2.2C11.744 2.2 11.744 2.2 11.744 2.2C11.744 2.2 11.744 2.2 11.744 2.2C11.744 2.2 11.744 2.2 11.744 2.2C11.744 2.2 11.744 2.2 11.744 2.2C11.744 2.2 11.744 2.2 11.744 2.2C11.744 2.2 11.744 2.2 11.744 2.2C11.744 2.2 11.744 2.2 11.744 2.2C11.744 2.2 11.744 2.2 11.744 2.2C11.744 2.2 11.744 2.2 11.744 2.2C11.744 2.2 11.744 2.2 11.744 2.2C11.744 2.2 11.744 2.2 11.744 2.2C11.744 2.2 11.744 2.2 11.744 2.2C11.744 2.2 11.744 2.2 11.744 2.2C11.744 2.2 11.744 2.2 11.744 2.2C11.744 2.2 11.744 2.2 11.744 2.2C11.744 2.2 11.744 2.2 11.744 2.2C11.744 2.2 11.744 2.2 11.744 2.2C11.744 2.2 11.744 2.2 11.744 2.2C11.744 2.2 11.744 2.2 11.744 2.2C11.744 2.2 11.744 2.2 11.744 2.2C11.744 2.2 11.744 2.2 11.744 2.2C11.744 2.2 11.744 2.2 11.744 2.2C11.744 2.2 11.744 2.2 11.744 2.2C11.744 2.2 11.744 2.2 11.744 2.2C11.744 2.2 11.744 2.2 11.744 2.2C11.744 2.2 11.744 2.2 11.744 2.2C11.744 2.2 11.744 2.2 11.744 2.2C11.744 2.2 11.744 2.2 11.744 2.2C11.744 2.2 11.744 2.2 11.744 2.2C11.744 2.2 11.744 2.2 11.744 2.2C11.744 2.2 11.744 2.2 11.744 2.2C11.744 2.2 11.744 2.2 11.744 2.2C11.744 2.2 11.744 2.2 11.744 2.2C11.744 2.2 11.744 2.2 11.744 2.2C11.744 2.2 11.744 2.2 11.744 2.2C11.744 2.2 11.744 2.2 11.744 2.2C11.744 2.2 11.744 2.2 11.744 2.2C11.744 2.2 11.744 2.2 11.744 2.2C11.744 2.2 11.744 2.2 11.744 2.2C11.744 2.2 11.744 2.2 11.744 2.2C11.744 2.2 11.744 2.2 11.744 2.2C11.744 2.2 11.744 2.2 11.744 2.2C11.744 2.2 11.744 2.2 11.744 2.2C11.744 2.2 11.744 2.2 11.744 2.2C11.744 2.2 11.744 2.2 11.744 2.2C11.744 2.2 11.744 2.2 11.744 2.2C11.744 2.2 11.744 2.2 11.744 2.2C11.744 2.2 11.744 2.2 11.744 2.2C11.744 2.2 11.744 2.2 11.744 2.2C11.744 2.2 11.744 2.2 11.744 2.2C11.744 2.2 11.744 2.2 11.744 2.2C11.744 2.2 11.744 2.2 11.744 2.2C11.744 2.2 11.744 2.2 11.744 2.2C11.744 2.2 11.744 2.2 11.744 2.2C11.744 2.2 11.744 2.2 11.744 2.2C11.744 2.2 11.744 2.2 11.744 2.2C11.744 2.2 11.744 2.2 11.744 2.2C11.744 2.2 11.744 2.2 11.744 2.2C11.744 2.2 11.744 2.2 11.744 2.2C11.744 2.2 11.744 2.2 11.744 2.2C11.744 2.2 11.744 2.2 11.744 2.2C11.744 2.2 11.744 2.2 11.744 2.2C11.744 2.2 11.744 2.2 11.744 2.2C11.744 2.2 11.744 2.2 11.744 2.2C11.744 2.2 11.744 2.2 11.744 2.2C11.744 2.2 11.744 2.2 11.744 2.2C11.744 2.2 11.744 2.2 11.744 2.2C11.744 2.2 11.744 2.2 11.744 2.2C11.744 2.2 11.744 2.2 11.744 2.2C11.744 2.2 11.744 2.2 11.744 2.2C11.744 2.2 11.744 2.2 11.744 2.2C11.744 2.2 11.744 2.2 11.744 2.2C11.744 2.2 11.744 2.2 11.744 2.2C11.744 2.2 11.744 2.2 11.744 2.2C11.744 2.2 11.744 2.2 11.744 2.2C11.744 2.2 11.744 2.2 11.744 2.2C11.744 2.2 11.744 2.2 11.744 2.2C11.744 2.2 11.744 2.2 11.744 2.2C11.744 2.2 11.744 2.2 11.744 2.2C11.744 2.2 11.744 2.2 11.744 2.2C11.744 2.2 11.744 2.2 11.744 2.2C11.744 2.2 11.744 2.2 11.744 2.2C11.744 2.2 11.744 2.2 11.744 2.2C11.744 2.2 11.744 2.2 11.744 2.2C11.744 2.2 11.744 2.2 11.744 2.2C11.744 2.2 11.744 2.2 11.744 2.2C11.744 2.2 11.744 2.2 11.744 2.2C11.744 2.2 11.744 2.2 11.744 2.2C11.744 2.2 11.744 2.2 11.744 2.2C11.744 2.2 11.744 2.2 11.744 2.2C11.744 2.2 11.744 2.2 11.744 2.2C11.744 2.2 11.744 2.2 11.744 2.2C11.744 2.2 11.744 2.2 11.744 2.2C11.744 2.2 11.744 2.2 11.744 2.2C11.744 2.2 11.744 2.2 11.744 2.2C11.744 2.2 11.744 2.2 11.744 2.2C11.744 2.2 11.744 2.2 11.744 2.2C11.744 2.2 11.744 2.2 11.744 2.2C11.744 2.2 11.744 2.2 11.744 2.2C11.744 2.2 11.744 2.2 11.744 2.2C11.744 2.2 11.744 2.2 11.744 2.2C11.744 2.2 11.744 2.2 11.744 2.2C11.744 2.2 11.744 2.2 11.744 2.2C11.744 2.2 11.744 2.2 11.744 2.2C11.744 2.2 11.744 2.2 11.744 2.2C11.744 2.2 11.744 2.2 11.744 2.2C11.744 2.2 11.744 2.2 11.744 2.2C11.744 2.2 11.744 2.2 11.744 2.2C11.744 2.2 11.744 2.2 11.744 2.2C11.744 2.2 11.744 2.2 11.744 2.2C11.744 2.2 11.744 2.2 11.744 2.2C11.744 2.2 11.744 2.2 11.744 2.2C11.744 2.2 11.744 2.2 11.744 2.2C11.744 2.2 11.744 2.2 11.744 2.2C11.744 2.2 11.744 2.2 11.744 2.2C11.744 2.2 11.744 2.2 11.744 2.2C11.744 2.2 11.744 2.2 11.744 2.2C11.744 2.2 11.744 2.2 11.744 2.2C11.744 2.2 11.744 2.2 11.744 2.2C11.744 2.2 11.744 2.2 11.744 2.2C11.744 2.2 11.744 2.2 11.744 2.2C11.744 2.2 11.744 2.2 11.744 2.2C11.744 2.2 11.744 2.2 11.744 2.2C11.744 2.2 11.744 2.2 11.744 2.2C11.744 2.2 11.744 2.2 11.744 2.2C11.744 2.2 11.744 2.2 11.744 2.2C11.744 2.2 11.744 2.2 11.744 2.2C11.744 2.2 11.744 2.2 11.744 2.2C11.744 2.2 11.744 2.2 11.744 2.2C11.744 2.2 11.744 2.2 11.744 2.2C11.744 2.2 11.744 1.6 11.744 1C11.744 1 11.744 1 11.744 1C11.744 1 11.744 1 11.744 1C11.744 1 11.744 1 11.744 1C11.744 1 11.744 1 11.744 1C11.744 1 11.744 1 11.744 1C11.744 1 11.744 1 11.744 1C11.744 1 11.744 1 11.744 1C11.744 1 11.744 1 11.744 1C11.744 1 11.744 1 11.744 1C11.744 1 11.744 1 11.744 1C11.744 1 11.744 1 11.744 1C11.744 1 11.744 1 11.744 1C11.744 1 11.744 1 11.744 1C11.744 1 11.744 1 11.744 1C11.744 1 11.744 1 11.744 1C11.744 1 11.744 1 11.744 1C11.744 1 11.744 1 11.744 1C11.744 1 11.744 1 11.744 1C11.744 1 11.744 1 11.744 1C11.744 1 11.744 1 11.744 1C11.744 1 11.744 1 11.744 1C11.744 1 11.744 1 11.744 1C11.744 1 11.744 1 11.744 1C11.744 1 11.744 1 11.744 1C11.744 1 11.744 1 11.744 1C11.744 1 11.744 1 11.744 1C11.744 1 11.744 1 11.744 1C11.744 1 11.744 1 11.744 1C11.744 1 11.744 1 11.744 1C11.744 1 11.744 1 11.744 1C11.744 1 11.744 1 11.744 1C11.744 1 11.744 1 11.744 1C11.744 1 11.744 1 11.744 1C11.744 1 11.744 1 11.744 1C11.744 1 11.744 1 11.744 1C11.744 1 11.744 1 11.744 1C11.744 1 11.744 1 11.744 1C11.744 1 11.744 1 11.744 1C11.744 1 11.744 1 11.744 1C11.744 1 11.744 1 11.744 1C11.744 1 11.744 1 11.744 1C11.744 1 11.744 1 11.744 1C11.744 1 11.744 1 11.744 1C11.744 1 11.744 1 11.744 1C11.744 1 11.744 1 11.744 1C11.744 1 11.744 1 11.744 1C11.744 1 11.744 1 11.744 1C11.744 1 11.744 1 11.744 1C11.744 1 11.744 1 11.744 1C11.744 1 11.744 1 11.744 1C11.744 1 11.744 1 11.744 1C11.744 1 11.744 1 11.744 1C11.744 1 11.744 1 11.744 1C11.744 1 11.744 1 11.744 1C11.744 1 11.744 1 11.744 1C11.744 1 11.744 1 11.744 1C11.744 1 11.744 1 11.744 1C11.744 1 11.744 1 11.744 1C11.744 1 11.744 1 11.744 1C11.744 1 11.744 1 11.744 1C11.744 1 11.744 1 11.744 1C11.744 1 11.744 1 11.744 1C11.744 1 11.744 1 11.744 1C11.744 1 11.744 1 11.744 1C11.744 1 11.744 1 11.744 1C11.744 1 11.744 1 11.744 1C11.744 1 11.744 1 11.744 1C11.744 1 11.744 1 11.744 1C11.744 1 11.744 1 11.744 1C11.744 1 11.744 1 11.744 1C11.744 1 11.744 1 11.744 1C11.744 1 11.744 1 11.744 1C11.744 1 11.744 1 11.744 1C11.744 1 11.744 1 11.744 1C11.744 1 11.744 1 11.744 1C11.744 1 11.744 1 11.744 1C11.744 1 11.744 1 11.744 1C11.744 1 11.744 1 11.744 1C11.744 1 11.744 1 11.744 1C11.744 1 11.744 1 11.744 1C11.744 1 11.744 1 11.744 1C11.744 1 11.744 1 11.744 1C11.744 1 11.744 1 11.744 1C11.744 1 11.744 1 11.744 1C11.744 1 11.744 1 11.744 1C11.744 1 11.744 1 11.744 1C11.744 1 11.744 1 11.744 1C11.744 1 11.744 1 11.744 1C11.744 1 11.744 1 11.744 1C11.744 1 11.744 1 11.744 1C11.744 1 11.744 1 11.744 1C11.744 1 11.744 1 11.744 1C11.744 1 11.744 1 11.744 1C11.744 1 11.744 1 11.744 1C11.744 1 11.744 1 11.744 1C11.744 1 11.744 1 11.744 1C11.744 1 11.744 1 11.744 1C11.744 1 11.744 1 11.744 1C11.744 1 11.744 1 11.744 1C11.744 1 11.744 1 11.744 1C11.744 1 11.744 1 11.744 1C11.744 1 11.744 1 11.744 1C11.744 1 11.744 1 11.744 1C11.744 1 11.744 1 11.744 1C11.744 1 11.744 1 11.744 1C11.744 1 11.744 1 11.744 1C11.744 1 11.744 1 11.744 1C11.744 1 11.744 1 11.744 1C11.744 1 11.744 1 11.744 1C11.744 1 11.744 1 11.744 1C11.744 1 11.744 1 11.744 1C11.744 1 11.744 1 11.744 1C11.744 1 11.744 1 11.744 1C11.744 1 11.744 1 11.744 1C11.744 1 11.744 1 11.744 1C11.744 1 11.744 1 11.744 1C11.744 1 11.744 1 11.744 1C11.744 1 11.744 1 11.744 1C11.744 1 11.744 1 11.744 1C11.744 1 11.744 1 11.744 1C11.744 1 11.744 1 11.744 1C11.744 1 11.744 1 11.744 1C11.744 1 11.744 1 11.744 1C11.744 1 11.744 1 11.744 1C11.744 1 11.744 1 11.744 1C11.744 1 11.744 1 11.744 1C11.744 1 11.744 1 11.744 1C11.744 1 11.744 1 11.744 1C11.744 1 11.744 1 11.744 1C11.744 1 11.744 1 11.744 1C11.744 1 11.744 1 11.744 1C11.744 1 11.744 1 11.744 1C11.744 1 11.744 1 11.744 1C11.744 1 11.744 1 11.744 1C11.744 1 11.744 1 11.744 1C11.744 1 11.744 1 11.744 1C11.744 1 11.744 1 11.744 1C11.744 1 11.744 1 11.744 1C11.744 1 11.744 1 11.744 1C11.744 1 11.744 1 11.744 1C11.744 1 11.744 1 11.744 1C11.744 1 11.744 1 11.744 1C11.744 1 11.744 1 11.744 1C11.744 1 11.744 1 11.744 1C11.744 1 11.744 1 11.744 1C11.744 1 11.744 1 11.744 1C11.744 1 11.744 1 11.744 1C11.744 1 11.744 1 11.744 1C11.744 1 11.744 1 11.744 1C11.744 1 11.744 1 11.744 1C11.744 1 11.744 1 11.744 1C11.744 1 11.744 1 11.744 1C11.744 1 11.744 1 11.744 1C11.744 1 11.744 1 11.744 1C11.744 1 11.744 1 11.744 1C11.744 1 11.744 1 11.744 1C11.744 1 11.744 1 11.744 1C11.744 1 11.744 1 11.744 1C11.744 1 11.744 1 11.744 1C11.744 1 11.744 1 11.744 1C11.744 1 11.744 1 11.744 1C11.744 1 11.744 1 11.744 1C11.744 1 11.744 1 11.744 1C11.744 1 11.744 1 11.744 1C11.744 1 11.744 1 11.744 1C11.744 1 11.744 1 11.744 1C11.744 1 11.744 1 11.744 1C11.744 1 11.744 1 11.744 1C11.744 1 11.744 1 11.744 1C11.744 1 11.744 1 11.744 1C11.744 1 11.744 1 11.744 1C11.744 1 11.744 1 11.744 1C11.744 1 11.744 1 11.744 1C11.744 1 11.744 1 11.744 1C11.744 1 11.744 1 11.744 1C11.744 1 11.744 1 11.744 1C11.744 1 11.744 1 11.744 1C11.744 1 11.744 1 11.744 1C11.744 1 11.744 1 11.744 1C11.744 1 11.744 1 11.744 1C11.744 1 11.744 1 11.744 1C11.744 1 11.744 1 11.744 1C11.744 1 11.744 1 11.744 1C11.744 1 11.744 1 11.744 1C11.744 1 11.744 1 11.744 1C11.744 1 11.744 1 11.744 1C11.744 1 11.744 1 11.744 1C11.744 1 11.744 1 11.744 1C11.744 1 11.744 1 11.744 1C11.744 1 11.744 1 11.744 1C11.744 1 11.744 1 11.744 1C11.744 1 11.744 1 11.744 1C11.744 1 11.744 1 11.744 1C11.744 1 11.744 1 11.744 1C11.744 1 11.744 1 11.744 1C11.744 1 11.744 1 11.744 1C11.744 1 11.744 1 11.744 1C11.744 1 11.744 1 11.744 1C11.744 1 11.744 1 11.744 1C11.744 1 11.744 1 11.744 1C11.744 1 11.744 1 11.744 1C11.744 1 11.744 1 11.744 1C11.744 1 11.744 1 11.744 1C11.744 1 11.744 1 11.744 1C11.744 1 11.744 1 11.744 1C11.744 1 11.744 1 11.744 1C11.744 1 11.744 1 11.744 1C11.744 1 11.744 1 11.744 1C11.744 1 11.744 1 11.744 1C11.744 1 11.744 1 11.744 1C11.744 1 11.744 1 11.744 1C11.744 1 11.744 1 11.744 1C11.744 1 11.744 1 11.744 1C11.744 1 11.744 1 11.744 1C11.744 1 11.744 1 11.744 1C11.744 1 11.744 1 11.744 1C11.744 1 11.744 1 11.744 1C11.744 1 11.744 1 11.744 1C11.744 1 11.744 1 11.744 1C11.744 1 11.744 1 11.744 1C11.744 1 11.744 1 11.744 1C11.744 1 11.744 1 11.744 1C11.744 1 11.744 1 11.744 1C11.744 1 11.744 1 11.744 1C11.744 1 11.744 1 11.744 1C11.744 1 11.744 1 11.744 1C11.744 1 11.744 1 11.744 1C11.744 1 11.744 1 11.744 1C11.744 1 11.744 1 11.744 1C11.744 1 11.744 1 11.744 1C11.744 1 11.744 1 11.744 1C11.744 1 11.744 1 11.744 1C11.744 1 11.744 1 11.744 1C11.744 1 11.744 1 11.744 1C11.744 1 11.744 1 11.744 1C11.744 1 11.744 1 11.744 1C11.744 1 11.744 1 11.744 1C11.744 1 11.744 1 11.744 1C11.744 1 11.744 1 11.744 1C11.744 1 11.744 1 11.744 1C11.744 1 11.744 1 11.744 1C11.744 1 11.744 1 11.744 1C11.744 1 11.744 1 11.744 1C11.744 1 11.744 1 11.744 1C11.744 1 11.744 1 11.744 1C11.744 1 11.744 1 11.744 1C11.744 1 11.744 1 11.744 1C11.744 1 11.744 1 11.744 1C11.744 1 11.744 1 11.744 1C11.744 1 11.744 1 11.744 1C11.744 1 11.744 1 11.744 1C11.744 1 11.744 1 11.744 1C11.744 1 11.744 1 11.744 1C11.744 1 11.744 1 11.744 1C11.744 1 11.744 1 11.744 1C11.744 1 11.744 1 11.744 1C11.744 1 11.744 1 11.744 1C11.744 1 11.744 1 11.744 1C11.744 1 11.744 1 11.744 1C11.744 1 11.744 1 11.744 1C11.744 1 11.744 1 11.744 1C11.744 1 11.744 1 11.744 1C11.744 1 11.744 1 11.744 1C11.744 1 11.744 1 11.744 1C11.744 1 11.744 1 11.744 1C11.744 1 11.744 1 11.744 1C11.744 1 11.744 1 11.744 1C11.744 1 11.744 1 11.744 1C11.744 1 11.744 1 11.744 1C11.744 1 11.744 1 11.744 1C11.744 1 11.744 1 11.744 1C11.744 1 11.744 1 11.744 1C11.744 1 11.744 1 11.744 1C11.744 1 11.744 1 11.744 1C11.744 1 11.744 1 11.744 1C11.744 1 11.744 1 11.744 1C11.744 1 11.744 1 11.744 1C11.744 1 11.744 1 11.744 1C11.744 1 11.744 1 11.744 1C11.744 1 11.744 1 11.744 1C11.744 1 11.744 1 11.744 1C11.744 1 11.744 1 11.744 1C11.744 1 11.744 1 11.744 1C11.744 1 11.744 1 11.744 1C11.744 1 11.744 1 11.744 1C11.744 1 11.744 1 11.744 1C11.744 1 11.744 1 11.744 1C11.744 1 11.744 1 11.744 1C11.744 1 11.744 1 11.744 1C11.744 1 11.744 1 11.744 1C11.744 1 11.744 1 11.744 1C11.744 1 11.744 1 11.744 1C11.744 1 11.744 1 11.744 1C11.744 1 11.744 1 11.744 1C11.744 1 11.744 1 11.744 1C11.744 1 11.744 1 11.744 1C11.744 1 11.744 1 11.744 1C11.744 1 11.744 1 11.744 1C11.744 1 11.744 1 11.744 1C11.744 1 11.744 1 11.744 1C11.744 1 11.744 1 11.744 1C11.744 1 11.744 1 11.744 1C11.744 1 11.744 1 11.744 1C11.744 1 11.744 1 11.744 1C11.744 1 11.744 1 11.744 1C11.744 1 11.744 1 11.744 1C11.744 1 11.744 1 11.744 1C11.744 1 11.744 1 11.744 1C11.744 1 11.744 1 11.744 1C11.744 1 11.744 1 11.744 1C11.744 1 11.744 1 11.744 1C11.744 1 11.744 1 11.744 1C11.744 1 11.744 1 11.744 1C11.744 1 11.744 1 11.744 1C11.744 1 11.744 1 11.744 1C11.744 1 11.744 1 11.744 1C11.744 1 11.744 1 11.744 1C11.744 1 11.744 1 11.744 1C11.744 1 11.744 1 11.744 1C11.744 1 11.744 1 11.744 1C11.744 1 11.744 1 11.744 1C11.744 1 11.744 1 11.744 1C11.744 1 11.744 1 11.744 1C11.744 1 11.744 1 11.744 1C11.744 1 11.744 1 11.744 1C11.744 1 11.744 1 11.744 1C11.744 1 11.744 1 11.744 1C11.744 1 11.744 1 11.744 1C11.744 1 11.744 1 11.744 1C11.744 1 11.744 1 11.744 1C11.744 1 11.744 1 11.744 1C11.744 1 11.744 1 11.744 1C11.744 1 11.744 1 11.744 1C11.744 1 11.744 1 11.744 1C11.744 1 11.744 1 11.744 1C11.744 1 11.744 1 11.744 1C11.744 1 11.744 1 11.744 1C11.744 1 11.744 1 11.744 1C11.744 1 11.744 1 11.744 1C11.744 1 11.744 1 11.744 1C11.744 1 11.744 1 11.744 1.6C11.744 2.2 11.744 2.2 11.744 2.2C11.744 2.2 11.744 2.2 11.744 2.2C11.744 2.2 11.744 2.2 11.744 2.2C11.744 2.2 11.744 2.2 11.744 2.2C11.744 2.2 11.744 2.2 11.744 2.2C11.744 2.2 11.744 2.2 11.744 2.2C11.744 2.2 11.744 2.2 11.744 2.2C11.744 2.2 11.744 2.2 11.744 2.2C11.744 2.2 11.744 2.2 11.744 2.2C11.744 2.2 11.744 2.2 11.744 2.2C11.744 2.2 11.744 2.2 11.744 2.2C11.744 2.2 11.744 2.2 11.744 2.2C11.744 2.2 11.744 2.2 11.744 2.2C11.744 2.2 11.744 2.2 11.744 2.2C11.744 2.2 11.744 2.2 11.744 2.2C11.744 2.2 11.744 2.2 11.744 2.2C11.744 2.2 11.744 2.2 11.744 2.2C11.744 2.2 11.744 2.2 11.744 2.2C11.744 2.2 11.744 2.2 11.744 2.2C11.744 2.2 11.744 2.2 11.744 2.2C11.744 2.2 11.744 2.2 11.744 2.2C11.744 2.2 11.744 2.2 11.744 2.2C11.744 2.2 11.744 2.2 11.744 2.2C11.744 2.2 11.744 2.2 11.744 2.2C11.744 2.2 11.744 2.2 11.744 2.2C11.744 2.2 11.744 2.2 11.744 2.2C11.744 2.2 11.744 2.2 11.744 2.2C11.744 2.2 11.744 2.2 11.744 2.2C11.744 2.2 11.744 2.2 11.744 2.2C11.744 2.2 11.744 2.2 11.744 2.2C11.744 2.2 11.744 2.2 11.744 2.2C11.744 2.2 11.744 2.2 11.744 2.2C11.744 2.2 11.744 2.2 11.744 2.2C11.744 2.2 11.744 2.2 11.744 2.2C11.744 2.2 11.744 2.2 11.744 2.2C11.744 2.2 11.744 2.2 11.744 2.2C11.744 2.2 11.744 2.2 11.744 2.2C11.744 2.2 11.744 2.2 11.744 2.2C11.744 2.2 11.744 2.2 11.744 2.2C11.744 2.2 11.744 2.2 11.744 2.2C11.744 2.2 11.744 2.2 11.744 2.2C11.744 2.2 11.744 2.2 11.744 2.2C11.744 2.2 11.744 2.2 11.744 2.2C11.744 2.2 11.744 2.2 11.744 2.2C11.744 2.2 11.744 2.2 11.744 2.2C11.744 2.2 11.744 2.2 11.744 2.2C11.744 2.2 11.744 2.2 11.744 2.2C11.744 2.2 11.744 2.2 11.744 2.2C11.744 2.2 11.744 2.2 11.744 2.2C11.744 2.2 11.744 2.2 11.744 2.2C11.744 2.2 11.744 2.2 11.744 2.2C11.744 2.2 11.744 2.2 11.744 2.2C11.744 2.2 11.744 2.2 11.744 2.2C11.744 2.2 11.744 2.2 11.744 2.2C11.744 2.2 11.744 2.2 11.744 2.2C11.744 2.2 11.744 2.2 11.744 2.2C11.744 2.2 11.744 2.2 11.744 2.2C11.744 2.2 11.744 2.2 11.744 2.2C11.744 2.2 11.744 2.2 11.744 2.2C11.744 2.2 11.744 2.2 11.744 2.2C11.744 2.2 11.744 2.2 11.744 2.2C11.744 2.2 11.744 2.2 11.744 2.2C11.744 2.2 11.744 2.2 11.744 2.2C11.744 2.2 11.744 2.2 11.744 2.2C11.744 2.2 11.744 2.2 11.744 2.2C11.744 2.2 11.744 2.2 11.744 2.2C11.744 2.2 11.744 2.2 11.744 2.2C11.744 2.2 11.744 2.2 11.744 2.2C11.744 2.2 11.744 2.2 11.744 2.2C11.744 2.2 11.744 2.2 11.744 2.2C11.744 2.2 11.744 2.2 11.744 2.2C11.744 2.2 11.744 2.2 11.744 2.2C11.744 2.2 11.744 2.2 11.744 2.2C11.744 2.2 11.744 2.2 11.744 2.2C11.744 2.2 11.744 2.2 11.744 2.2C11.744 2.2 11.744 2.2 11.744 2.2C11.744 2.2 11.744 2.2 11.744 2.2C11.744 2.2 11.744 2.2 11.744 2.2C11.744 2.2 11.744 2.2 11.744 2.2C11.744 2.2 11.744 2.2 11.744 2.2C11.744 2.2 11.744 2.2 11.744 2.2C11.744 2.2 11.744 2.2 11.744 2.2C11.744 2.2 11.744 2.2 11.744 2.2C11.744 2.2 11.744 2.2 11.744 2.2C11.744 2.2 11.744 2.2 11.744 2.2C11.744 2.2 11.744 2.2 11.744 2.2C11.744 2.2 11.744 2.2 11.744 2.2C11.744 2.2 11.744 2.2 11.744 2.2C11.744 2.2 11.744 2.2 11.744 2.2C11.744 2.2 11.744 2.2 11.744 2.2C11.744 2.2 11.744 2.2 11.744 2.2C11.744 2.2 11.744 2.2 11.744 2.2C11.744 2.2 11.744 2.2 11.744 2.2C11.744 2.2 11.744 2.2 11.744 2.2C11.744 2.2 11.744 2.2 11.744 2.2C11.744 2.2 11.744 2.2 11.744 2.2C11.744 2.2 11.744 2.2 11.744 2.2C11.744 2.2 11.744 2.2 11.744 2.2C11.744 2.2 11.744 2.2 11.744 2.2C11.744 2.2 11.744 2.2 11.744 2.2C11.744 2.2 11.744 2.2 11.744 2.2C11.744 2.2 11.744 2.2 11.744 2.2C11.744 2.2 11.744 2.2 11.744 2.2C11.744 2.2 11.744 2.2 11.744 2.2C11.744 2.2 11.744 2.2 11.744 2.2C11.744 2.2 11.744 2.2 11.744 2.2C11.744 2.2 11.744 2.2 11.744 2.2C11.744 2.2 11.744 2.2 11.744 2.2C11.744 2.2 11.744 2.2 11.744 2.2C11.744 2.2 11.744 2.2 11.744 2.2C11.744 2.2 11.744 2.2 11.744 2.2C11.744 2.2 11.744 2.2 11.744 2.2C11.744 2.2 11.744 2.2 11.744 2.2C11.744 2.2 11.744 2.2 11.744 2.2C11.744 2.2 11.744 2.2 11.744 2.2C11.744 2.2 11.744 2.2 11.744 2.2C11.744 2.2 11.744 2.2 11.744 2.2C11.744 2.2 11.744 2.2 11.744 2.2C11.744 2.2 11.744 2.2 11.744 2.2C11.744 2.2 11.744 2.2 11.744 2.2C11.744 2.2 11.744 2.2 11.744 2.2C11.744 2.2 11.744 2.2 11.744 2.2C11.744 2.2 11.744 2.2 11.744 2.2C11.744 2.2 11.744 2.2 11.744 2.2C11.744 2.2 11.744 2.2 11.744 2.2C11.744 2.2 11.744 2.2 11.744 2.2C11.744 2.2 11.744 2.2 11.744 2.2C11.744 2.2 11.744 2.2 11.744 2.2C11.744 2.2 11.744 2.2 11.744 2.2C11.744 2.2 11.744 2.2 11.744 2.2C11.744 2.2 11.744 2.2 11.744 2.2C11.744 2.2 11.744 2.2 11.744 2.2C11.744 2.2 11.744 2.2 11.744 2.2C11.744 2.2 11.744 2.2 11.744 2.2C11.744 2.2 11.744 2.2 11.744 2.2C11.744 2.2 11.744 2.2 11.744 2.2C11.744 2.2 11.744 2.2 11.744 2.2C11.744 2.2 11.744 2.2 11.744 2.2C11.744 2.2 11.744 2.2 11.744 2.2C11.744 2.2 11.744 2.2 11.744 2.2C11.744 2.2 11.744 2.2 11.744 2.2C11.744 2.2 11.744 2.2 11.744 2.2C11.744 2.2 11.744 2.2 11.744 2.2C11.744 2.2 11.744 2.2 11.744 2.2C11.744 2.2 11.744 2.2 11.744 2.2C11.744 2.2 11.744 2.2 11.744 2.2C11.744 2.2 11.744 2.2 11.744 2.2C11.744 2.2 11.744 2.2 11.744 2.2C11.744 2.2 11.744 2.2 11.744 2.2C11.744 2.2 11.744 2.2 11.744 2.2C11.744 2.2 11.744 2.2 11.744 2.2C11.744 2.2 11.744 2.2 11.744 2.2C11.744 2.2 11.744 2.2 11.744 2.2C11.744 2.2 11.744 2.2 11.744 2.2C11.744 2.2 11.744 2.2 11.744 2.2C11.744 2.2 11.744 2.2 11.744 2.2C11.744 2.2 11.744 2.2 11.744 2.2C11.744 2.2 11.744 2.2 11.744 2.2C11.744 2.2 11.744 2.2 11.744 2.2C11.744 2.2 11.744 2.2 11.744 2.2C11.744 2.2 11.744 2.2 11.744 2.2C11.744 2.2 11.744 2.2 11.744 2.2C11.744 2.2 11.744 2.2 11.744 2.2C11.744 2.2 11.744 2.2 11.744 2.2C11.744 2.2 11.744 2.2 11.744 2.2C11.744 2.2 11.744 2.2 11.744 2.2C11.744 2.2 11.744 2.2 11.744 2.2C11.744 2.2 11.744 2.2 11.744 2.2C11.744 2.2 11.744 2.2 11.744 2.2C11.744 2.2 11.744 2.2 11.744 2.2C11.744 2.2 11.744 2.2 11.744 2.2C11.744 2.2 11.744 2.2 11.744 2.2C11.744 2.2 11.744 2.2 11.744 2.2C11.744 2.2 11.744 2.2 11.744 2.2C11.744 2.2 11.744 2.2 11.744 2.2C11.744 2.2 11.744 2.2 11.744 2.2C11.744 2.2 11.744 2.2 11.744 2.2C11.744 2.2 11.744 2.2 11.744 2.2C11.744 2.2 11.744 2.2 11.744 2.2C11.744 2.2 11.744 2.2 11.744 2.2C11.744 2.2 11.744 2.2 11.744 2.2C11.744 2.2 11.744 2.2 11.744 2.2C11.744 2.2 11.744 2.2 11.744 2.2C11.744 2.2 11.744 2.2 11.744 2.2C11.744 2.2 11.744 2.2 11.744 2.2C11.744 2.2 11.744 2.2 11.744 2.2C11.744 2.2 11.744 2.2 11.744 2.2C11.744 2.2 11.744 2.2 11.744 2.2C11.744 2.2 11.744 2.2 11.744 2.2C11.744 2.2 11.744 2.2 11.744 2.2C11.744 2.2 11.744 2.2 11.744 2.2C11.744 2.2 11.744 2.2 11.744 2.2C11.744 2.2 11.744 2.2 11.744 2.2C11.744 2.2 11.744 2.2 11.744 2.2C11.744 2.2 11.744 2.2 11.744 2.2C11.744 2.2 11.744 2.2 11.744 2.2C11.744 2.2 11.744 2.2 11.744 2.2C11.744 2.2 11.744 2.2 11.744 2.2C11.744 2.2 11.744 2.2 11.744 2.2C11.744 2.2 11.744 2.2 11.744 2.2C11.744 2.2 11.744 2.2 11.744 2.2C11.744 2.2 11.744 2.2 11.744 2.2C11.744 2.2 11.744 2.2 11.744 2.2C11.744 2.2 11.744 2.2 11.744 2.2C11.744 2.2 11.744 2.2 11.744 2.2C11.744 2.2 11.744 2.2 11.744 2.2C11.744 2.2 11.744 2.2 11.744 2.2C11.744 2.2 11.744 2.2 11.744 2.2C11.744 2.2 11.744 2.2 11.744 2.2C11.744 2.2 11.744 2.2 11.744 2.2C11.744 2.2 11.744 2.2 11.744 2.2C11.744 2.2 11.744 2.2 11.744 2.2C11.744 2.2 11.744 2.2 11.744 2.2C11.744 2.2 11.744 2.2 11.744 2.2C11.744 2.2 11.744 2.2 11.744 2.2C11.744 2.2 11.744 2.2 11.744 2.2C11.744 2.2 11.744 2.2 11.744 2.2C11.744 2.2 11.744 2.2 11.744 2.2C11.744 2.2 11.744 2.2 11.744 2.2C11.744 2.2 11.744 2.2 11.744 2.2C11.744 2.2 11.744 2.2 11.744 2.2C11.744 2.2 11.744 2.2 11.744 2.2C11.744 2.2 11.744 2.2 11.744 2.2C11.744 2.2 11.744 2.2 11.744 2.2C11.744 2.2 11.744 2.2 11.744 2.2C11.744 2.2 11.744 2.2 11.744 2.2C11.744 2.2 11.744 2.2 11.744 2.2C11.744 2.2 11.744 2.2 11.744 2.2C11.744 2.2 11.744 2.2 11.744 2.2C11.744 2.2 11.744 2.2 11.744 2.2C11.744 2.2 11.744 2.2 11.744 2.2C11.744 2.2 11.744 2.2 11.744 2.2C11.744 2.2 11.744 2.2 11.744 2.2C11.744 2.2 11.744 2.2 11.744 2.2C11.744 2.2 11.744 2.2 11.744 2.2C11.744 2.2 11.744 2.2 11.744 2.2C11.744 2.2 11.744 2.2 11.744 2.2C11.744 2.2 11.744 2.2 11.744 2.2C11.744 2.2 11.744 2.2 11.744 2.2C11.744 2.2 11.744 2.2 11.744 2.2C11.744 2.2 11.744 2.2 11.744 2.2C11.744 2.2 11.744 2.2 11.744 2.2C11.744 2.2 11.744 2.2 11.744 2.2C11.744 2.2 11.744 2.2 11.744 2.2C11.744 2.2 11.744 2.2 11.744 2.2C11.744 2.2 11.744 2.2 11.744 2.2C11.744 2.2 11.744 2.2 11.744 2.2C11.744 2.2 11.744 2.2 11.744 2.2C11.744 2.2 11.744 2.2 11.744 2.2C11.744 2.2 11.744 2.2 11.744 2.2C11.744 2.2 11.744 2.2 11.744 2.2C11.744 2.2 11.744 2.2 11.744 2.2C11.744 2.2 11.744 2.2 11.744 2.2C11.744 2.2 11.744 2.2 11.744 2.2C11.744 2.2 11.744 2.2 11.744 2.2C11.744 2.2 11.744 2.2 11.744 2.2C11.744 2.2 11.744 2.2 11.744 2.2C11.744 2.2 11.744 2.2 11.744 2.2C11.744 2.2 11.744 2.2 11.744 2.2C11.744 2.2 11.744 2.2 11.744 2.2C11.744 2.2 11.744 2.2 11.744 2.2C11.744 2.2 11.744 2.2 11.744 2.2C11.744 2.2 11.744 2.2 11.744 2.2C11.744 2.2 11.744 2.2 11.744 2.2C11.744 2.2 11.744 2.2 11.744 2.2C11.744 2.2 11.744 2.2 11.744 2.2C11.744 2.2 11.744 2.2 11.744 2.2C11.744 2.2 11.744 2.2 11.744 2.2C11.744 2.2 11.744 2.2 11.744 2.2C11.744 2.2 11.744 2.2 11.744 2.2C11.744 2.2 11.744 2.2 11.744 2.2C11.744 2.2 11.744 2.2 11.744 2.2C11.744 2.2 11.744 2.2 11.744 2.2C11.744 2.2 11.744 2.2 11.744 2.2C11.744 2.2 11.744 2.2 11.744 2.2C11.744 2.2 11.744 2.2 11.744 2.2C11.744 2.2 11.744 2.2 11.744 2.2C11.744 2.2 11.744 2.2 11.744 2.2C11.744 2.2 11.744 2.2 11.744 2.2C11.744 2.2 11.744 2.2 11.744 2.2C11.744 2.2 11.744 2.2 11.744 2.2C11.744 2.2 11.744 2.2 11.744 2.2C11.744 2.2 11.744 2.2 11.744 2.2C11.744 2.2 11.744 2.2 11.744 2.2C11.744 2.2 11.744 2.2 11.744 2.2C11.744 2.2 11.744 2.2 11.744 2.2C11.744 2.2 11.744 2.2 11.744 2.2C11.744 2.2 11.744 2.2 11.744 2.2C11.744 2.2 11.744 2.2 11.744 2.2C11.744 2.2 11.744 2.2 11.744 2.2C11.744 2.2 11.744 2.2 11.744 2.2C11.744 2.2 11.744 2.2 11.744 2.2C11.744 2.2 11.744 2.2 11.744 2.2C11.744 2.2 11.744 2.2 11.744 2.2C11.744 2.2 11.744 2.2 11.744 2.2C11.744 2.2 11.744 2.2 11.744 2.2C11.744 2.2 11.744 2.2 11.744 2.2C11.744 2.2 11.744 2.2 11.744 2.2C11.744 2.2 11.744 2.2 11.744 2.2C11.744 2.2 11.744 2.2 11.744 2.2C11.744 2.2 11.744 2.2 11.744 2.2C11.744 2.2 11.744 2.2 11.744 2.2C11.744 2.2 11.744 2.2 11.744 2.2C11.744 2.2 11.744 2.2 11.744 2.2C11.744 2.2 11.744 2.2 11.744 2.2C11.744 2.2 11.744 2.2 11.744 2.2C11.744 2.2 11.744 2.2 11.744 2.2C11.744 2.2 11.744 2.2 11.744 2.2C11.744 2.2 11.744 2.2 11.744 2.2C11.744 2.2 11.744 2.2 11.744 2.2C11.744 2.2 11.744 2.2 11.744 2.2C11.744 2.2 11.744 2.2 11.744 2.2C11.744 2.2 11.744 2.2 11.744 2.2C11.744 2.2 11.744 2.2 11.744 2.2C11.744 2.2 11.744 2.2 11.744 2.2C11.744 2.2 11.744 2.2 11.744 2.2C11.744 2.2 11.744 2.2 11.744 2.2C11.744 2.2 11.744 2.2 11.744 2.2C11.744 2.2 11.744 2.2 11.744 2.2C11.744 2.2 11.744 2.2 11.744 2.2C11.744 2.2 11.744 2.2 11.744 2.2C11.744 2.2 11.744 2.2 11.744 2.2C11.744 2.2 11.744 2.2 11.744 2.2C11.744 2.2 11.744 2.2 11.744 2.2C11.744 2.2 11.744 2.2 11.744 2.2C11.744 2.2 11.744 2.2 11.744 2.2C11.744 2.2 11.744 2.2 11.744 2.2C11.744 2.2 11.744 2.2 11.744 2.2C11.744 2.2 11.744 2.2 11.744 2.2C11.744 2.2 11.744 2.2 11.744 2.2C11.744 2.2 11.744 2.2 11.744 2.2C11.744 2.2 11.744 2.2 11.744 2.2C11.744 2.2 11.744 2.2 11.744 2.2C11.744 2.2 11.744 2.2 11.744 2.2C11.744 2.2 11.744 2.2 11.744 2.2C11.744 2.2 11.744 2.2 11.744 2.2C11.744 2.2 11.744 2.2 11.744 2.2C11.744 2.2 11.744 2.2 11.744 2.2C11.744 2.2 11.744 2.2 11.744 2.2C11.744 2.2 11.744 2.2 11.744 2.2C11.744 2.2 11.744 2.2 11.744 2.2C11.744 1.6 11.744 1 11.744 1C11.744 1 11.744 1 11.744 1C11.744 1 11.744 1 11.744 1C11.744 1 11.744 1 11.744 1C11.744 1 11.744 1 11.744 1C11.744 1 11.744 1 11.744 1C11.744 1 11.744 1 11.744 1C11.744 1 11.744 1 11.744 1C11.744 1 11.744 1 11.744 1C11.744 1 11.744 1 11.744 1C11.744 1 11.744 1 11.744 1C11.744 1 11.744 1 11.744 1C11.744 1 11.744 1 11.744 1C11.744 1 11.744 1 11.744 1C11.744 1 11.744 1 11.744 1C11.744 1 11.744 1 11.744 1C11.744 1 11.744 1 11.744 1C11.744 1 11.744 1 11.744 1C11.744 1 11.744 1 11.744 1C11.744 1 11.744 1 11.744 1C11.744 1 11.744 1 11.744 1C11.744 1 11.744 1 11.744 1C11.744 1 11.744 1 11.744 1C11.744 1 11.744 1 11.744 1C11.744 1 11.744 1 11.744 1C11.744 1 11.744 1 11.744 1C11.744 1 11.744 1 11.744 1C11.744 1 11.744 1 11.744 1C11.744 1 11.744 1 11.744 1C11.744 1 11.744 1 11.744 1C11.744 1 11.744 1 11.744 1C11.744 1 11.744 1 11.744 1C11.744 1 11.744 1 11.744 1C11.744 1 11.744 1 11.744 1C11.744 1 11.744 1 11.744 1C11.744 1 11.744 1 11.744 1C11.744 1 11.744 1 11.744 1C11.744 1 11.744 1 11.744 1C11.744 1 11.744 1 11.744 1C11.744 1 11.744 1 11.744 1C11.744 1 11.744 1 11.744 1C11.744 1 11.744 1 11.744 1C11.744 1 11.744 1 11.744 1C11.744 1 11.744 1 11.744 1C11.744 1 11.744 1 11.744 1C11.744 1 11.744 1 11.744 1C11.744 1 11.744 1 11.744 1C11.744 1 11.744 1 11.744 1C11.744 1 11.744 1 11.744 1C11.744 1 11.744 1 11.744 1C11.744 1 11.744 1 11.744 1C11.744 1 11.744 1 11.744 1C11.744 1 11.744 1 11.744 1C11.744 1 11.744 1 11.744 1C11.744 1 11.744 1 11.744 1C11.744 1 11.744 1 11.744 1C11.744 1 11.744 1 11.744 1C11.744 1 11.744 1 11.744 1C11.744 1 11.744 1 11.744 1C11.744 1 11.744 1 11.744 1C11.744 1 11.744 1 11.744 1C11.744 1 11.744 1 11.744 1C11.744 1 11.744 1 11.744 1C11.744 1 11.744 1 11.744 1C11.744 1 11.744 1 11.744 1C11.744 1 11.744 1 11.744 1C11.744 1 11.744 1 11.744 1C11.744 1 11.744 1 11.744 1C11.744 1 11.744 1 11.744 1C11.744 1 11.744 1 11.744 1C11.744 1 11.744 1 11.744 1C11.744 1 11.744 1 11.744 1C11.744 1 11.744 1 11.744 1C11.744 1 11.744 1 11.744 1C11.744 1 11.744 1 11.744 1C11.744 1 11.744 1 11.744 1C11.744 1 11.744 1 11.744 1C11.744 1 11.744 1 11.744 1C11.744 1 11.744 1 11.744 1C11.744 1 11.744 1 11.744 1C11.744 1 11.744 1 11.744 1C11.744 1 11.744 1 11.744 1C11.744 1 11.744 1 11.744 1C11.744 1 11.744 1 11.744 1C11.744 1 11.744 1 11.744 1C11.744 1 11.744 1 11.744 1C11.744 1 11.744 1 11.744 1C11.744 1 11.744 1 11.744 1C11.744 1 11.744 1 11.744 1C11.744 1 11.744 1 11.744 1C11.744 1 11.744 1 11.744 1C11.744 1 11.744 1 11.744 1C11.744 1 11.744 1 11.744 1C11.744 1 11.744 1 11.744 1C11.744 1 11.744 1 11.744 1C11.744 1 11.744 1 11.744 1C11.744 1 11.744 1 11.744 1C11.744 1 11.744 1 11.744 1C11.744 1 11.744 1 11.744 1C11.744 1 11.744 1 11.744 1C11.744 1 11.744 1 11.744 1C11.744 1 11.744 1 11.744 1C11.744 1 11.744 1 11.744 1C11.744 1 11.744 1 11.744 1C11.744 1 11.744 1 11.744 1C11.744 1 11.744 1 11.744 1C11.744 1 11.744 1 11.744 1C11.744 1 11.744 1 11.744 1C11.744 1 11.744 1 11.744 1C11.744 1 11.744 1 11.744 1C11.744 1 11.744 1 11.744 1C11.744 1 11.744 1 11.744 1C11.744 1 11.744 1 11.744 1C11.744 1 11.744 1 11.744 1C11.744 1 11.744 1 11.744 1C11.744 1 11.744 1 11.744 1C11.744 1 11.744 1 11.744 1C11.744 1 11.744 1 11.744 1C11.744 1 11.744 1 11.744 1C11.744 1 11.744 1 11.744 1C11.744 1 11.744 1 11.744 1C11.744 1 11.744 1 11.744 1C11.744 1 11.744 1 11.744 1C11.744 1 11.744 1 11.744 1C11.744 1 11.744 1 11.744 1C11.744 1 11.744 1 11.744 1C11.744 1 11.744 1 11.744 1C11.744 1 11.744 1 11.744 1C11.744 1 11.744 1 11.744 1C11.744 1 11.744 1 11.744 1C11.744 1 11.744 1 11.744 1C11.744 1 11.744 1 11.744 1C11.744 1 11.744 1 11.744 1C11.744 1 11.744 1 11.744 1C11.744 1 11.744 1 11.744 1C11.744 1 11.744 1 11.744 1C11.744 1 11.744 1 11.744 1C11.744 1 11.744 1 11.744 1C11.744 1 11.744 1 11.744 1C11.744 1 11.744 1 11.744 1C11.744 1 11.744 1 11.744 1C11.744 1 11.744 1 11.744 1C11.744 1 11.744 1 11.744 1C11.744 1 11.744 1 11.744 1C11.744 1 11.744 1 11.744 1C11.744 1 11.744 1 11.744 1C11.744 1 11.744 1 11.744 1C11.744 1 11.744 1 11.744 1C11.744 1 11.744 1 11.744 1C11.744 1 11.744 1 11.744 1C11.744 1 11.744 1 11.744 1C11.744 1 11.744 1 11.744 1C11.744 1 11.744 1 11.744 1C11.744 1 11.744 1 11.744 1C11.744 1 11.744 1 11.744 1C11.744 1 11.744 1 11.744 1C11.744 1 11.744 1 11.744 1C11.744 1 11.744 1 11.744 1C11.744 1 11.744 1 11.744 1C11.744 1 11.744 1 11.744 1C11.744 1 11.744 1 11.744 1C11.744 1 11.744 1 11.744 1C11.744 1 11.744 1 11.744 1C11.744 1 11.744 1 11.744 1C11.744 1 11.744 1 11.744 1C11.744 1 11.744 1 11.744 1C11.744 1 11.744 1 11.744 1C11.744 1 11.744 1 11.744 1C11.744 1 11.744 1 11.744 1C11.744 1 11.744 1 11.744 1C11.744 1 11.744 1 11.744 1V2.2Z" fill="#4D4D4D"/>
</svg>
