<svg width="16" height="16" viewBox="0 0 16 16" fill="none" xmlns="http://www.w3.org/2000/svg">
<path d="M11.9992 6.95327L9.04662 4.0007L7.98596 2.94004L1.55409 9.37191L1.48144 9.4444C1.13587 9.78879 0.821577 10.102 0.65464 10.513C0.487718 10.9239 0.494554 11.3675 0.502068 11.8552L0.503593 11.958L0.522505 13.3384L0.523037 13.3777C0.526971 13.6696 0.530856 13.9578 0.565925 14.1964C0.605722 14.4672 0.698354 14.7797 0.95928 15.0406C1.22021 15.3016 1.53266 15.3942 1.80348 15.434C2.04208 15.469 2.33024 15.4729 2.62207 15.4768L2.66148 15.4774L4.04189 15.4963L4.14451 15.4978C4.63233 15.5053 5.07598 15.5122 5.48694 15.3452C5.89788 15.1783 6.21107 14.864 6.55543 14.5185L6.62797 14.4458L13.0598 8.01393L11.9992 6.95327Z" fill="#5A5A5A"/>
<path d="M9.06568 13.9964C8.65147 13.9964 8.31568 14.3322 8.31568 14.7464C8.31568 15.1606 8.65147 15.4964 9.06568 15.4964L14.7499 15.4964C15.1641 15.4964 15.4999 15.1606 15.4999 14.7464C15.4999 14.3322 15.1641 13.9964 14.7499 13.9964L9.06568 13.9964Z" fill="#5A5A5A"/>
<path d="M10.1076 2.94036L13.0595 5.8923L14.1203 6.95307C14.4689 6.6025 14.7704 6.28915 14.9914 5.99942C15.2788 5.62276 15.4999 5.19928 15.4999 4.6755C15.4999 4.15172 15.2788 3.72825 14.9914 3.35159C14.7242 3.00129 14.3393 2.61645 13.8958 2.17307L13.8268 2.10404C13.3834 1.6606 12.9986 1.27572 12.6483 1.00846C12.2716 0.721073 11.8482 0.5 11.3244 0.5C10.8006 0.5 10.3771 0.721073 10.0005 1.00846C9.71074 1.22951 9.39739 1.53103 9.04682 1.87958L10.1076 2.94036Z" fill="#5A5A5A"/>
</svg>
