<svg width="14" height="18" viewBox="0 0 14 18" fill="none" xmlns="http://www.w3.org/2000/svg">
<path d="M1 1H6V4.55556L5.58333 5L3.91667 6.33333L3.5 9H1V1Z" fill="#77A648"/>
<path d="M7 17H13V9H11L9 12.5556L7 13V17Z" fill="#77A648"/>
<path d="M0 0.5C0 0.223858 0.223858 0 0.5 0H6.5C6.77614 0 7 0.223858 7 0.5C7 0.776142 6.77614 1 6.5 1H0.5C0.223858 1 0 0.776142 0 0.5Z" fill="#77A648"/>
<path d="M6 17.5C6 17.7761 6.22386 18 6.5 18H13.5C13.7761 18 14 17.7761 14 17.5C14 17.2239 13.7761 17 13.5 17H6.5C6.22386 17 6 17.2239 6 17.5Z" fill="#77A648"/>
<path fill-rule="evenodd" clip-rule="evenodd" d="M7 15C10.3137 15 13 12.3137 13 9C13 5.68629 10.3137 3 7 3C3.68629 3 1 5.68629 1 9C1 12.3137 3.68629 15 7 15ZM7 11.5714C8.42016 11.5714 9.57143 10.4202 9.57143 9C9.57143 7.57984 8.42016 6.42857 7 6.42857C5.57984 6.42857 4.42857 7.57984 4.42857 9C4.42857 10.4202 5.57984 11.5714 7 11.5714Z" fill="#77A648"/>
</svg>
