<svg width="17" height="16" viewBox="0 0 17 16" fill="none" xmlns="http://www.w3.org/2000/svg">
<path d="M5.7494 3.31759C6.84852 1.68604 7.39809 0.870274 8.16542 0.805703C8.25501 0.798164 8.34508 0.798164 8.43468 0.805703C9.20201 0.870273 9.75157 1.68604 10.8507 3.31759C11.1465 3.75672 11.2944 3.97628 11.4991 4.13471C11.5245 4.15437 11.5505 4.17326 11.577 4.19136C11.7908 4.33724 12.0451 4.4102 12.5537 4.55613C14.4435 5.09831 15.3885 5.3694 15.6869 6.07994C15.7218 6.16291 15.7496 6.24865 15.7701 6.33628C15.9459 7.08672 15.3406 7.86199 14.1301 9.41251C13.8043 9.82984 13.6414 10.0385 13.5541 10.2823C13.5433 10.3125 13.5334 10.3431 13.5244 10.374C13.4518 10.6225 13.4611 10.8872 13.4796 11.4165C13.5485 13.3831 13.5829 14.3665 13 14.8702C12.932 14.929 12.8591 14.982 12.7822 15.0286C12.1235 15.4278 11.1998 15.0912 9.35258 14.4179C8.85539 14.2367 8.6068 14.1461 8.34819 14.1384C8.3161 14.1374 8.28399 14.1374 8.25191 14.1384C7.9933 14.1461 7.74471 14.2367 7.24751 14.4179C5.40025 15.0912 4.47662 15.4278 3.81792 15.0286C3.74101 14.982 3.66814 14.929 3.60008 14.8702C3.01721 14.3665 3.05164 13.3831 3.12048 11.4165C3.13901 10.8872 3.14828 10.6225 3.07574 10.374C3.06673 10.3431 3.05681 10.3125 3.04598 10.2823C2.9587 10.0385 2.79579 9.82984 2.46998 9.41251C1.25946 7.86199 0.654203 7.08672 0.829971 6.33628C0.850495 6.24865 0.878328 6.16291 0.913179 6.07994C1.21165 5.3694 2.15655 5.09831 4.04637 4.55613C4.55501 4.4102 4.80933 4.33724 5.0231 4.19136C5.04963 4.17326 5.0756 4.15437 5.101 4.13471C5.30566 3.97628 5.45357 3.75672 5.7494 3.31759Z" stroke="#4D4D4D" stroke-width="1.2"/>
</svg>
