<svg width="16" height="16" viewBox="0 0 16 16" fill="none" xmlns="http://www.w3.org/2000/svg">
<path d="M8.00002 1.90773C10.0502 1.90773 11.0752 1.90773 11.8838 2.24501M8.00002 1.90773C6.937 1.90773 6.14958 1.90773 5.52502 1.95475M8.00002 1.90773C9.2253 1.90773 10.0844 1.90773 10.75 1.97973M11.8838 2.24501C12.962 2.6947 13.8185 3.55726 14.2651 4.64292C14.4509 5.09467 14.5336 5.61351 14.5705 6.33851M11.8838 2.24501C11.6278 2.13822 11.3501 2.06525 11.025 2.01538M1.42958 6.33851C1.40002 6.92027 1.40002 7.63479 1.40002 8.55389C1.40002 10.6184 1.40002 11.6506 1.73495 12.4649C2.18153 13.5505 3.03809 14.4131 4.11622 14.8628C4.92481 15.2 5.94988 15.2 8.00002 15.2C10.0502 15.2 11.0752 15.2 11.8838 14.8628C12.962 14.4131 13.8185 13.5505 14.2651 12.4649C14.6 11.6506 14.6 10.6184 14.6 8.55389C14.6 7.63479 14.6 6.92027 14.5705 6.33851M1.42958 6.33851C1.46641 5.61351 1.54914 5.09467 1.73495 4.64292C2.18153 3.55726 3.03809 2.6947 4.11622 2.24501C4.37223 2.13822 4.64994 2.06524 4.97502 2.01537M1.42958 6.33851H14.5705M4.97502 2.01537C5.14431 1.9894 5.32643 1.9697 5.52502 1.95475M4.97502 2.01537V0.937549C4.97502 0.86161 5.03659 0.800049 5.11252 0.800049V0.800049C5.18846 0.800049 5.25002 0.86161 5.25002 0.937549V1.97973M4.97502 2.01537C5.06305 2.00187 5.15455 1.99006 5.25002 1.97973M5.52502 1.95475C5.4297 1.96193 5.33816 1.9702 5.25002 1.97973M11.025 2.01538V0.937549C11.025 0.86161 10.9635 0.800049 10.8875 0.800049V0.800049C10.8116 0.800049 10.75 0.86161 10.75 0.937549V1.97973M11.025 2.01538C10.937 2.00188 10.8455 1.99006 10.75 1.97973" stroke="#4D4D4D" stroke-width="1.2" stroke-linecap="round"/>
<path d="M10.4 11.78C10.4 11.3492 10.7492 11 11.18 11H11.42C11.8508 11 12.2 11.3492 12.2 11.78V12.02C12.2 12.4508 11.8508 12.8 11.42 12.8H11.18C10.7492 12.8 10.4 12.4508 10.4 12.02V11.78Z" fill="#4D4D4D"/>
</svg>
