<svg width="12" height="20" viewBox="0 0 12 20" fill="none" xmlns="http://www.w3.org/2000/svg">
<path fill-rule="evenodd" clip-rule="evenodd" d="M3.08333 3.12694C3.08333 1.53805 4.38917 0.25 6 0.25C7.61083 0.25 8.91667 1.53805 8.91667 3.12694V10.2651C10.3226 11.1933 11.25 12.7753 11.25 14.5715C11.25 17.4315 8.8995 19.75 6 19.75C3.10051 19.75 0.75 17.4315 0.75 14.5715C0.75 12.7753 1.67739 11.1933 3.08333 10.2651V3.12694ZM6 1.40078C5.0335 1.40078 4.25 2.17361 4.25 3.12694V10.5842C4.25 10.7896 4.139 10.9794 3.95876 11.0823C2.73672 11.7795 1.91667 13.0814 1.91667 14.5715C1.91667 16.7959 3.74484 18.5992 6 18.5992C8.25516 18.5992 10.0833 16.7959 10.0833 14.5715C10.0833 13.0814 9.26328 11.7795 8.04124 11.0823C7.861 10.9794 7.75 10.7896 7.75 10.5842V3.12694C7.75 2.17361 6.9665 1.40078 6 1.40078Z" fill="#77A648"/>
<path d="M9.11111 14.5715C9.11111 16.2663 7.71822 17.6402 6 17.6402C4.28178 17.6402 2.88889 16.2663 2.88889 14.5715C2.88889 13.1416 3.88038 11.9401 5.22222 11.5994V6.94568C5.22222 6.52198 5.57045 6.1785 6 6.1785C6.42955 6.1785 6.77778 6.52198 6.77778 6.94568V11.5994C8.11962 11.9401 9.11111 13.1416 9.11111 14.5715Z" fill="#77A648"/>
</svg>
