<svg width="18" height="20" viewBox="0 0 18 20" fill="none" xmlns="http://www.w3.org/2000/svg">
<path d="M11.3292 7.33541C11.5144 7.70589 11.9649 7.85606 12.3354 7.67082C12.7059 7.48558 12.8561 7.03507 12.6708 6.66459L11.3292 7.33541ZM10.0854 3.70418C9.71493 3.51894 9.26442 3.66911 9.07918 4.03959C8.89394 4.41007 9.04411 4.86058 9.41459 5.04582L10.0854 3.70418ZM17.25 11.3511C17.25 8.99955 15.9064 6.25144 14.3139 4.13983C13.5071 3.06997 12.6052 2.12087 11.718 1.43118C10.86 0.764241 9.90166 0.25 9 0.25V1.75C9.38519 1.75 10.0077 2.0016 10.7973 2.61543C11.5577 3.20651 12.3698 4.05311 13.1163 5.04298C14.6305 7.05082 15.75 9.47825 15.75 11.3511H17.25ZM9 0.25C8.09835 0.25 7.13996 0.764241 6.28204 1.43118C5.39485 2.12087 4.49285 3.06997 3.68605 4.13983C2.09363 6.25144 0.75 8.99955 0.75 11.3511H2.25C2.25 9.47825 3.36952 7.05082 4.88368 5.04298C5.63016 4.05311 6.44231 3.20651 7.20266 2.61543C7.99227 2.0016 8.61481 1.75 9 1.75V0.25ZM0.75 11.3511C0.75 15.9757 4.42982 19.75 9 19.75V18.25C5.28591 18.25 2.25 15.1752 2.25 11.3511H0.75ZM9 19.75C13.5702 19.75 17.25 15.9757 17.25 11.3511H15.75C15.75 15.1752 12.7141 18.25 9 18.25V19.75ZM12.6708 6.66459C12.4508 6.22449 12.0403 5.61484 11.5961 5.07195C11.1716 4.55313 10.6163 3.9696 10.0854 3.70418L9.41459 5.04582C9.63375 5.1554 10.0159 5.50937 10.4352 6.0218C10.8347 6.51016 11.1742 7.02551 11.3292 7.33541L12.6708 6.66459Z" fill="#77A648"/>
</svg>
